<?xml version="1.0" standalone="no"?>
<svg xmlns="http://www.w3.org/2000/svg">
  <path d="M40.7715 63.841C36.8586 63.841 33.6883 67.0187 33.6883 70.9408C33.6883 74.8628 36.8586 78.0406 40.7715 78.0406C44.6844 78.0406 47.8547 74.8628 47.8547 70.9408C47.8547 67.0187 44.6844 63.841 40.7715 63.841ZM151.447 15.9746V89.3201C151.447 93.0704 151.704 95.7901 152.246 97.4505C152.789 99.1396 153.817 100.256 155.36 100.857C156.873 101.458 159.273 101.831 162.529 102.031V104.98C157.13 104.693 149.39 104.522 139.365 104.522C128.826 104.522 121.057 104.665 116.059 104.98V102.031C119.601 101.831 122.171 101.43 123.799 100.857C125.427 100.256 126.541 99.1396 127.112 97.4505C127.712 95.7614 127.998 93.0704 127.998 89.3201V11.9666L95.3808 97.4219C95.9806 98.3093 96.6375 99.0537 97.323 99.6549C99.0081 101.144 100.608 101.917 102.178 102.031V104.98C96.2662 104.693 88.8117 104.522 79.7577 104.522C69.7327 104.522 62.2496 104.665 57.3371 104.98V102.031C61.0786 101.831 63.7348 101.373 65.3057 100.628C66.8766 99.8839 67.6763 98.5956 67.6763 96.7062C67.6763 94.9312 67.0765 92.5551 65.9055 89.6064L57.0515 65.3583L56.0233 62.4095L41.4284 22.4732L26.091 62.4095L24.92 65.3583L21.0927 75.5499C18.3508 82.6497 16.9513 88.1177 16.9513 91.9539C16.9513 95.7901 18.0652 98.1376 20.2645 99.569C22.4637 101 25.7482 101.802 30.0896 102.002V104.951C23.4062 104.665 17.2941 104.493 11.7817 104.493C7.26904 104.493 3.5275 104.636 0.557121 104.951V102.002C5.38399 101.115 9.61107 95.9332 13.2384 86.4859L46.8265 0C47.9118 0.0858847 49.6255 0.143141 51.9961 0.143141C54.3667 0.143141 56.0233 0.0858847 57.0229 0L92.8674 92.5837C93.0959 93.1849 93.353 93.7288 93.5814 94.2728L128.883 0.744334H139.365C149.39 0.744334 157.13 0.601193 162.529 0.286282V3.23499C159.187 3.43539 156.788 3.83618 155.303 4.40875C153.817 5.00994 152.818 6.12644 152.275 7.81551C151.732 9.50457 151.475 12.1956 151.475 15.9459" fill="var(--armac-black)"></path>
  <path d="M87.7835 121.67C87.4122 122.271 87.2694 122.615 87.1266 122.958C86.9838 122.615 86.7839 122.243 86.4411 121.67L82.0427 114.656H80.4432V129.371H81.9856V118.75C81.9856 118.206 81.9856 117.948 81.8999 117.175H81.9284C82.1855 117.862 82.414 118.263 82.6425 118.635L86.6125 124.991H87.6407L91.3822 118.635C91.5822 118.263 91.8392 117.862 92.0677 117.175H92.0963C92.0391 117.948 92.0391 118.206 92.0391 118.75V129.371H93.5815V114.656H91.982L87.7835 121.67Z" fill="var(--armac-black)"></path>
  <path d="M19.1506 121.67H17.6654V116.173H19.0649C21.4069 116.173 22.1495 117.404 22.1495 118.807C22.1495 120.353 20.8642 121.67 19.1506 121.67ZM21.0356 122.643C22.5779 122.071 23.9203 120.754 23.9203 118.635C23.9203 116.431 22.5208 114.656 19.0649 114.656H16.0374V129.371H17.6654V123.13H19.2362C19.8932 123.273 21.2641 125.621 23.6347 129.371H25.5769C23.2063 125.592 21.5212 122.844 21.0642 122.615" fill="var(--armac-black)"></path>
  <path d="M105.177 123.989H100.465L102.293 118.979C102.55 118.235 102.75 117.719 102.864 117.175C102.978 117.662 103.15 118.235 103.435 119.008L105.177 123.989ZM102.435 114.599L96.8089 129.342H98.4369L99.8364 125.42H105.749L107.262 129.342H108.976L103.349 114.599H102.435Z" fill="var(--armac-black)"></path>
  <path d="M36.1731 121.67C35.8018 122.271 35.659 122.615 35.5162 122.958C35.3734 122.615 35.1735 122.243 34.8307 121.67L30.4323 114.656H28.8329V129.371H30.3752V118.75C30.3752 118.206 30.3752 117.948 30.2895 117.175H30.3181C30.5751 117.862 30.8036 118.263 31.0321 118.635L35.0021 124.991H36.0303L39.7719 118.635C39.9718 118.263 40.2288 117.862 40.4573 117.175H40.4859C40.4288 117.948 40.4288 118.206 40.4288 118.75V129.371H41.9711V114.656H40.3717L36.1731 121.67Z" fill="var(--armac-black)"></path>
  <path d="M123.028 114.656V116.173H127.227V129.371H128.855V116.173H133.025L133.596 114.656H123.028Z" fill="var(--armac-black)"></path>
  <path d="M115.459 121.67H113.974V116.173H115.374C117.716 116.173 118.458 117.404 118.458 118.807C118.458 120.353 117.173 121.67 115.459 121.67ZM117.344 122.643C118.887 122.071 120.229 120.754 120.229 118.635C120.229 116.431 118.83 114.656 115.374 114.656H112.346V129.371H113.974V123.13H115.545C116.202 123.273 117.573 125.621 119.944 129.371H121.886C119.515 125.592 117.83 122.844 117.373 122.615" fill="var(--armac-black)"></path>
  <path d="M8.83992 123.989H4.12729L5.95522 118.979C6.21227 118.235 6.4122 117.719 6.52645 117.175C6.64069 117.662 6.81206 118.235 7.09767 119.008L8.83992 123.989ZM6.09803 114.599L0.5 129.371H2.128L3.5275 125.449H9.4397L10.9535 129.371H12.6671L7.04055 114.627H6.12659L6.09803 114.599Z" fill="var(--armac-black)"></path>
  <path d="M138.337 114.656H136.709V129.371H138.337V114.656Z" fill="var(--armac-black)"></path>
  <path d="M153.103 124.905C153.103 125.678 153.103 126.193 153.132 126.68H153.103C152.846 126.107 152.475 125.535 151.504 124.189L144.735 114.627H143.135V129.342H144.678V118.922C144.678 118.149 144.678 117.633 144.649 117.147H144.678C144.935 117.719 145.306 118.292 146.134 119.437L153.189 129.342H154.617V114.627H153.075V124.876L153.103 124.905Z" fill="var(--armac-black)"></path>
  <path d="M53.567 123.989H48.8544L50.6823 118.979C50.9393 118.235 51.1393 117.719 51.2535 117.175C51.3678 117.662 51.5391 118.235 51.8247 119.008L53.567 123.989ZM50.8251 114.599L45.1985 129.342H46.8265L48.226 125.42H54.1382L55.652 129.342H57.3657L51.7391 114.599H50.8251Z" fill="var(--armac-black)"></path>
  <path d="M66.7052 128.111C63.2778 128.111 61.2214 125.592 61.2214 122.071C61.2214 118.55 63.4492 116.03 66.7338 116.03C68.476 116.03 69.5042 116.488 70.5324 117.175V115.429C69.8755 115 68.5617 114.57 66.7909 114.57C62.4781 114.57 59.4792 117.948 59.4792 122.214C59.4792 126.48 62.164 129.629 66.5053 129.629C67.8762 129.629 69.2757 129.285 70.6181 128.541L70.1326 127.195C69.1615 127.739 67.9333 128.14 66.6766 128.14" fill="var(--armac-black)"></path>
  <path d="M161.957 114.656C161.957 114.656 161.843 114.656 161.757 114.828L160.901 116.46L159.987 114.828C159.987 114.828 159.929 114.656 159.815 114.685H159.244V117.548H159.787V115.486L160.615 117.061C160.615 117.061 160.901 117.376 161.129 117.061L161.986 115.486V117.548H162.5V114.685H161.929L161.957 114.656Z" fill="var(--armac-black)"></path>
  <path d="M158.758 114.656H156.416V115.171H156.445H157.273V117.519H157.33H157.93V115.171H158.787V114.656H158.758Z" fill="var(--armac-black)"></path>
</svg>