<?xml version="1.0" encoding="UTF-8"?>
<svg xmlns="http://www.w3.org/2000/svg" 
	 viewBox="0 0 120 60" 
	 width="120" 
	 height="60" 
	 fill="currentColor"> 
	 <path 
	d="M8.57,46.29h.3l-.44,2.92H8c-.24-1.44-.57-2.77-2.34-2.77-1.55,0-2.35,1.72-2.79,3a13.37,13.37,0,0,0-.78,4.25c0,2.06,1,2.63,2.14,2.63,1.72,0,2.63-1.43,3.32-2.8H8l-.67,2.95H7l-.4-.67a4.73,4.73,0,0,1-2.95.9A3.78,3.78,0,0,1,0,52.58c0-2.84,2.67-6.52,5.7-6.52a3.3,3.3,0,0,1,2.2.88Zm7.7,8c-.18.41-.88,1.67-1.37,1.67-.21,0-.3-.15-.3-.35a6.26,6.26,0,0,1,.26-1.17l1-3.93H14.37L14,51.69h0a1.51,1.51,0,0,0-1.46-1.36c-1.79,0-3.48,2.09-3.48,3.8s.79,2.54,2,2.54a2.24,2.24,0,0,0,2-1.09,1.14,1.14,0,0,0,1.14,1.09c1.17,0,2-1.25,2.37-2.23ZM12.18,56a1.74,1.74,0,0,1-.76.27c-.57,0-1.21-.07-.44-2.95.64-2.37,1-2.63,1.73-2.63s1,.78,1,1.4C13.76,53.11,13.19,55.52,12.18,56Zm7.08,0c-.37,0-.38-.21-.18-1.1l2-8.86-2.83.11-.11.38h1.22l-1.82,8.28c-.32,1.43.19,1.84,1.07,1.84,1.3,0,2.12-1.29,2.51-2.37l-.36-.07C20.58,54.74,19.9,56,19.26,56Zm6-8.62a.88.88,0,0,0-1.75,0,.88.88,0,1,0,1.75,0Zm0,6.92.34.12a7,7,0,0,1-1,1.64,1.85,1.85,0,0,1-1.48.59c-.6-.07-1.09-.35-1.09-1.05a5,5,0,0,1,.12-.91l.9-3.9h-1.2l.1-.38h1.4c.47,0,.93-.07,1.4-.07l-1,4.38a8.47,8.47,0,0,0-.21.93.29.29,0,0,0,.33.33C24.51,56,25,54.8,25.31,54.32Zm6.24-8.26a2.18,2.18,0,0,0-1,.2C29,47,28.3,49,27.86,50.56H26.34l-.11.38h1.52l-.94,4.73c-.16.8-.29,1.64-.53,2.43-.35,1.14-.81,1.52-1.31,1.52-.14,0-.4,0-.4-.2s.06-.13.12-.21a.5.5,0,0,0,.13-.36.66.66,0,0,0-.72-.61.71.71,0,0,0-.71.73,1.12,1.12,0,0,0,1.15,1,2.44,2.44,0,0,0,2.33-1.25A14.4,14.4,0,0,0,28.48,55c.17-.65.32-1.32.45-2l.43-2h1.46l.11-.38H29.44L30,48.07c.22-.91.7-1.63,1.45-1.63.15,0,.76,0,.42.32a.8.8,0,0,0-.27.61.67.67,0,0,0,.71.7.73.73,0,0,0,.82-.79C33.14,46.44,32.28,46.06,31.55,46.06Zm4.88,4.88a2.94,2.94,0,0,0-1.9-.61,3.15,3.15,0,0,0-2.21.85A4.17,4.17,0,0,0,30.81,54a2.43,2.43,0,0,0,1.8,2.54,3.63,3.63,0,0,0,.92.12,4,4,0,0,0,3.8-3.81A2.54,2.54,0,0,0,36.43,50.94Zm-1,2.84c-.16.57-.46,2.12-1.1,2.36a2.36,2.36,0,0,1-.79.15c-.9,0-1.06-.44-1.06-1.24A15,15,0,0,1,33,52c.25-.74.66-1.31,1.51-1.31s1.15.29,1.15,1.08A11.62,11.62,0,0,1,35.4,53.78Zm7.82-3.45A3.27,3.27,0,0,0,41,51.79l0,0,.35-1.39c-.47,0-.93.06-1.4.06H38.5l-.1.38h1.2l-1.2,5.63H40l.61-2.63A4.67,4.67,0,0,1,41,52.45c.23-.37.82-1.28,1.31-1.28.23,0,.3.2.43.4a.69.69,0,0,0,.65.39.72.72,0,0,0,.77-.74A.88.88,0,0,0,43.22,50.33ZM50.78,56c-.23,0-.4-.11-.34-.34l.81-3.31a3.33,3.33,0,0,0,.1-.78A1.21,1.21,0,0,0,50,50.33a3.35,3.35,0,0,0-2.57,1.55l0,0,.4-1.49c-.48,0-.93.07-1.4.07H45l-.11.38h1.2l-1.27,5.63h1.56l.72-3.14c.18-.82,1.17-2.36,2.09-2.36.29,0,.63.12.63.47,0,.17-.43,1.69-.5,2a21.54,21.54,0,0,0-.55,2.33.94.94,0,0,0,1,.84,2.8,2.8,0,0,0,.86-.09c.9-.22,1.48-1.24,1.83-2.06l-.31-.14C52,54.65,51.2,56,50.78,56Zm5.74-8.56a.88.88,0,0,0-1.75,0,.88.88,0,1,0,1.75,0Zm0,6.92.33.12a7,7,0,0,1-1,1.64,1.83,1.83,0,0,1-1.47.59c-.61-.07-1.1-.35-1.1-1.05a4.4,4.4,0,0,1,.13-.91l.89-3.9H53.1l.11-.38h1.4c.47,0,.92-.07,1.39-.07l-1,4.38a6.92,6.92,0,0,0-.22.93c0,.23.12.33.34.33C55.76,56,56.28,54.8,56.57,54.32Zm8.21,0c-.18.41-.88,1.67-1.37,1.67-.21,0-.3-.15-.3-.35a6.26,6.26,0,0,1,.26-1.17l1-3.93H62.88l-.35,1.14h0A1.51,1.51,0,0,0,61,50.33c-1.79,0-3.48,2.09-3.48,3.8s.79,2.54,2,2.54a2.27,2.27,0,0,0,2-1.09,1.14,1.14,0,0,0,1.14,1.09c1.16,0,2-1.25,2.37-2.23ZM60.69,56a1.74,1.74,0,0,1-.76.27c-.57,0-1.21-.07-.44-2.95.64-2.37,1-2.63,1.74-2.63s1,.78,1,1.4C62.27,53.11,61.7,55.52,60.69,56Zm10.08-9.35h1.39l-2,9.39h-.92l-.08.38h4.26l.07-.38H72.1l1-4.68h.54c.61,0,1.37.29,1.2,2h.41l.87-4.2h-.41c-.24,1.17-.79,1.78-2,1.78h-.52l.92-4.33h1.33c2.14,0,2.26.75,2.17,2.72H78l.48-3.1H70.84Zm13.49,7.66c-.18.41-.88,1.67-1.36,1.67-.22,0-.31-.15-.31-.35a6.26,6.26,0,0,1,.26-1.17l1-3.93H82.36L82,51.69h0a1.5,1.5,0,0,0-1.45-1.36c-1.8,0-3.49,2.09-3.49,3.8s.79,2.54,2,2.54a2.24,2.24,0,0,0,2-1.09,1.14,1.14,0,0,0,1.14,1.09c1.17,0,2-1.25,2.37-2.23ZM80.18,56a1.83,1.83,0,0,1-.76.27c-.58,0-1.22-.07-.45-2.95.64-2.37,1-2.63,1.74-2.63s1.05.78,1.05,1.4C81.76,53.11,81.18,55.52,80.18,56Zm11,0a.29.29,0,0,1-.3-.24,3.57,3.57,0,0,1,.15-.91l1-4.45H90.48l-.78,3.25a3.26,3.26,0,0,1-1.18,2,1.88,1.88,0,0,1-.79.33c-.31,0-.66-.09-.66-.49a9.46,9.46,0,0,1,.23-1.26l.93-3.94c-.47,0-.93.07-1.4.07h-1.4l-.11.38h1.21l-.78,3.58a7.39,7.39,0,0,0-.2,1.19c0,.85.64,1.09,1.36,1.09a3.22,3.22,0,0,0,2.49-1.46c0,.88.23,1.46,1.14,1.46,1.17,0,2-1.14,2.4-2.16l-.34-.18C92.41,54.77,91.74,56,91.19,56Zm6.19-5.7a4.06,4.06,0,0,0-3.82,3.76A2.43,2.43,0,0,0,96,56.67a3.26,3.26,0,0,0,2.92-1.87l-.29-.13a3.12,3.12,0,0,1-2.38,1.62,1.09,1.09,0,0,1-1.14-1.2,14,14,0,0,1,.56-2.67c.24-.76.61-1.71,1.58-1.71.23,0,1,0,.93.4,0,.12-.25.2-.32.29a.59.59,0,0,0-.12.41.76.76,0,0,0,.73.67.77.77,0,0,0,.85-.75C99.34,50.7,98.23,50.33,97.38,50.33Zm5.4,6a1.12,1.12,0,0,1-1.26-1.08,3.39,3.39,0,0,1,.22-1.32h1.12a3.4,3.4,0,0,0,1.79-.32A1.79,1.79,0,0,0,105.79,52c0-1.17-1.06-1.68-2.08-1.68a4,4,0,0,0-3.77,3.88,2.55,2.55,0,0,0,2.51,2.46,3.26,3.26,0,0,0,3.11-1.76l-.31-.15A2.9,2.9,0,0,1,102.78,56.29Zm.85-5.58c.58,0,.83.44.83,1,0,1.35-.85,1.81-2.09,1.81h-.56C102.15,52.58,102.31,50.71,103.63,50.71Zm6.44-1.88a6.57,6.57,0,0,1-1.58.24l-.37,1.49H107l-.1.47H108l-.79,3.54a8.62,8.62,0,0,0-.21,1.16c0,.65.61.94,1.19.94.86,0,1.79-.47,2.41-2.16l-.33-.07c-.22.48-.85,1.71-1.45,1.71a.31.31,0,0,1-.35-.32,6.93,6.93,0,0,1,.2-1l.9-3.76h1.27l.11-.47h-1.29Zm4.24,1.5a2,2,0,0,0-2.19,1.9c0,1.46,2.57,1.93,2.57,3.12,0,.73-.78.94-1.39.94-.22.05-.92-.07-.92-.39,0-.14.29-.38.29-.64a.66.66,0,0,0-.67-.72.73.73,0,0,0-.73.72c0,1.09,1.15,1.41,2,1.41a2.26,2.26,0,0,0,2.5-2c0-1.91-2.56-2.19-2.56-3.22,0-.53.64-.72,1.07-.72.19,0,.65,0,.66.28s-.19.33-.19.56a.6.6,0,0,0,.58.55c.47,0,.69-.28.69-.75S115.26,50.33,114.31,50.33Zm4.37-2.13a.46.46,0,0,0,.46-.49c0-.36-.21-.52-.63-.52h-.69V49h.27v-.78h.32l.47.78h.31Zm-.59-.22v-.55h.37c.19,0,.4,0,.4.26s-.21.29-.44.29Zm.33-1.45A1.57,1.57,0,1,0,120,48.09,1.55,1.55,0,0,0,118.42,46.53Zm0,2.87a1.31,1.31,0,1,1,1.27-1.31A1.27,1.27,0,0,1,118.42,49.4ZM95.79,19.07c0,.17,0,.35,0,.52a11.06,11.06,0,0,1-.37,2.81H84.66a13,13,0,0,1-1.92,4.1H74.48a12.27,12.27,0,0,0,2-6.73,12.45,12.45,0,0,0-2.34-7.19H93.44a13.39,13.39,0,0,1,1.79,3.51H84.45a11.21,11.21,0,0,1,.56,3ZM60,33.86c-9.14-.11-16.52-6.37-16.52-14.09S50.86,5.79,60,5.68a18,18,0,0,1,12.71,5.15H92C86.34,4.61,74.79.28,61.33,0H58.72C39.51.39,24.19,9,24.19,19.59S39.52,38.8,58.68,39.17l1.28,0,1.35,0c13.65-.26,25.34-4.71,31-11.06h-19A17.85,17.85,0,0,1,60,33.86Z" 
	class="logo__svg"> 
	</path>

</svg>