<svg width="162" height="26" viewBox="0 0 162 26" fill="none" xmlns="http://www.w3.org/2000/svg"><g clip-path="url(#clip0_19_230)" fill="#fff"><path d="M0 25.348V.948h2.177v11.43L13.159.949h2.892L4.534 12.614l12.06 12.734h-3.202L2.177 12.962v12.386H0zm23.523 0l3.208-8.293h9.898l3.095 8.293h2.403L31.937 0 21.3 25.348h2.23-.008zm8.262-20.777l4.135 10.59h-8.443l4.3-10.59h.008zm16.948 20.777V.948h2.176v22.33h8.354v2.07h-10.53zm17.896 0V.948h2.177v22.33h8.36v2.07H66.63zM89.42.948h-2.176v24.4h2.177V.948zM99.536 21.27l1.906-1.016c.354 1.205.957 2.138 1.823 2.797.866.66 1.898.993 3.111.993 1.529 0 2.726-.454 3.585-1.372.858-.91 1.288-2.175 1.288-3.79 0-1.182-.286-2.16-.866-2.94-.58-.782-1.816-1.684-3.721-2.707-2.433-1.304-4.053-2.448-4.858-3.441-.806-.993-1.206-2.184-1.206-3.57 0-1.737.58-3.154 1.748-4.238C103.513.894 105.02.349 106.88.349c1.213 0 2.275.257 3.171.773.904.515 1.635 1.288 2.192 2.32l-1.74 1.053c-.354-.713-.851-1.258-1.491-1.63-.64-.371-1.409-.56-2.282-.56-1.191 0-2.132.356-2.84 1.06-.701.713-1.055 1.668-1.055 2.873 0 1.721 1.394 3.32 4.188 4.806.505.266.889.478 1.153.622 2.063 1.144 3.449 2.22 4.142 3.237.693 1.015 1.047 2.334 1.047 3.956 0 2.191-.64 3.92-1.905 5.208-1.273 1.281-2.998 1.925-5.182 1.925-1.59 0-2.953-.394-4.083-1.182-1.13-.788-2.018-1.971-2.659-3.54zm27.018 4.078V3.018h-6.651V.947h15.539v2.07h-6.711v22.33h-2.177zm12.85 0l3.209-8.293h9.897l3.095 8.293h2.396L147.817 0l-10.635 25.348h2.229-.007zm8.255-20.777l4.135 10.59h-8.443l4.3-10.59h.008zm12.465 19.564v-.553h.362c.188 0 .384.038.384.258 0 .273-.203.288-.429.288h-.317v.007zm0 .228h.309l.467.773h.302l-.505-.78c.263-.031.459-.175.459-.494 0-.348-.203-.507-.625-.507h-.67v1.78h.271v-.772h-.008zm.324 1.425c.836 0 1.552-.652 1.552-1.547 0-.894-.716-1.538-1.552-1.538-.836 0-1.559.652-1.559 1.538 0 .887.716 1.547 1.559 1.547zm-1.25-1.547c0-.735.55-1.28 1.25-1.28.701 0 1.243.553 1.243 1.28 0 .728-.55 1.289-1.243 1.289-.693 0-1.25-.546-1.25-1.289z"/></g><defs><clipPath id="clip0_19_230"><path fill="#fff" d="M0 0h162v26H0z"/></clipPath></defs></svg>