<?xml version="1.0" encoding="utf-8"?><!DOCTYPE svg PUBLIC "-//W3C//DTD SVG 1.0//EN" "http://www.w3.org/TR/2001/REC-SVG-20010904/DTD/svg10.dtd"><svg xmlns="http://www.w3.org/2000/svg" xmlns:xlink="http://www.w3.org/1999/xlink"><symbol viewBox="0 0 101 55" id="logo-thg-large" xmlns="http://www.w3.org/2000/svg"><path d="M99.9 22c-.6 10.8-9.6 19.8-20.4 19.8-11.2 0-20.3-9.1-20.3-20.4S68.3 1.1 79.5 1.1c5.3 0 9.6 1.9 12.8 4.5C95 7.9 97 10.3 97.8 13h-5.2c-2.2-4.2-7.2-7.3-12.8-7.3-9.1 0-16.1 7.1-16.1 16 0 8.8 7.4 15.7 16.1 15.7 6.9 0 12.8-5.1 14.3-10.4h-4v-5h9.8z"/><path d="M75 22h13v5H75v-5zM49 2h5v38h-5V24H30v16h-5V2h5v17h19M0 2v5h8v33h5V7h8V2M18.5 49.7v-3.3h.9c.5 0 1.1 0 1.5.3.4.3.6.8.6 1.3s-.2.9-.5 1.2c-.4.4-.9.4-1.5.4h-1zm0 .5h.9c.7 0 1.4-.1 1.9-.5s.7-1 .7-1.6c0-.6-.2-1.2-.8-1.6-.4-.5-1.1-.5-1.7-.5H18v8h.5v-3.8zM36.8 50.9h-3.3l1.7-3.9 1.6 3.9zm.2.5 1.1 2.6h.5l-3.5-8.3-3.5 8.3h.5l1.1-2.6H37zM50.2 49.7v-3.3h.3c.5 0 1.1 0 1.5.2.6.3.9.9.9 1.4 0 .5-.2 1-.6 1.3-.4.4-.9.4-1.5.4h-.6zm.9.5c1.4 0 2.4-.7 2.4-2.1 0-.7-.2-1.3-.9-1.7-.5-.4-1.2-.4-1.9-.4h-1v8h.5v-3.8h.3l2.7 3.8h.6l-2.7-3.8zM65.7 54h-.5v-8h.5v8zM81.5 47.3c-.4-.6-.9-.9-1.7-.9-.9 0-1.6.7-1.6 1.5s.8 1.2 1.5 1.5l1.6.8c.6.4 1 .9 1 1.6 0 1.3-1.3 2.3-2.6 2.3-1.2 0-2.1-.7-2.5-1.7l.5-.2c.4.9 1 1.4 2 1.4 1.1 0 2.1-.8 2.1-1.9 0-.9-1-1.3-1.7-1.6l-1.5-.8c-.6-.3-.9-.8-.9-1.4 0-1.2.9-2 2.2-2 .8 0 1.7.4 2.1 1.1l-.5.3z"/></symbol></svg>