<?xml version="1.0" encoding="UTF-8" standalone="no"?>
<!DOCTYPE svg PUBLIC "-//W3C//DTD SVG 1.1//EN" "http://www.w3.org/Graphics/SVG/1.1/DTD/svg11.dtd">
<svg width="100%" height="100%" viewBox="0 0 154 64" version="1.1" xmlns="http://www.w3.org/2000/svg" xmlns:xlink="http://www.w3.org/1999/xlink" xml:space="preserve" xmlns:serif="http://www.serif.com/" style="fill-rule:evenodd;clip-rule:evenodd;stroke-linejoin:round;stroke-miterlimit:2;">
    <g>
        <g>
            <g>
                <path d="M28.3,6.5L28.3,15.5L36.5,15.5L36.5,17L28.3,17L28.3,29.8L26.7,29.8L26.7,5.1L36.7,5.1L36.7,6.6L28.3,6.5Z" style="fill-rule:nonzero;"/>
                <path d="M56.8,29.8L55,29.8L46.9,18.1L46.1,18.1L46.1,29.8L44.5,29.8L44.5,5.1L47.6,5.1C49.6,5.1 51.6,5.1 53.2,6.3C55,7.5 55.7,9.5 55.7,11.6C55.7,15.9 52.7,18.1 48.6,18.1L56.8,29.8ZM48.1,16.6C49.6,16.6 51.2,16.5 52.4,15.5C53.6,14.5 54.1,13.1 54.1,11.6C54.1,9.8 53.2,7.9 51.5,7.1C50.2,6.5 48.5,6.5 47.1,6.5L46.1,6.5L46.1,16.6L48.1,16.6Z" style="fill-rule:nonzero;"/>
                <path d="M66.2,21.7L62.9,29.8L61.3,29.8L71.7,4.3L82,29.8L80.4,29.8L77.1,21.7L66.2,21.7ZM71.7,8.3L66.8,20.2L76.5,20.2L71.7,8.3Z" style="fill-rule:nonzero;"/>
                <path d="M109.1,30.6L88.4,8.5L88.4,29.7L86.8,29.7L86.8,4.7L107.6,26.6L107.6,5.1L109.2,5.1L109.2,30.6L109.1,30.6Z" style="fill-rule:nonzero;"/>
                <path d="M130.2,28.3L130.2,29.8L112.8,29.8L127.9,6.6L114.3,6.6L114.3,5.1L130.7,5.1L115.6,28.3L130.2,28.3Z" style="fill-rule:nonzero;"/>
                <path d="M9.6,54.7L17,33.6L18.6,33.6L9.6,59.1L0.7,33.6L2.3,33.6L9.6,54.7Z" style="fill-rule:nonzero;"/>
                <rect x="22.6" y="33.6" width="1.6" height="24.7" style="fill-rule:nonzero;"/>
                <path d="M32.4,35L32.4,44L42.4,44L42.4,45.5L32.4,45.5L32.4,56.8L42.6,56.8L42.6,58.3L30.9,58.3L30.9,33.6L42.7,33.6L42.7,35L32.4,35Z" style="fill-rule:nonzero;"/>
                <path d="M70,46.4C70.1,49.5 69.6,52.2 67.4,54.6C65,57.2 61.5,58.6 58,58.6C51.1,58.6 45.3,52.8 45.3,46C45.3,38.9 51.1,33.2 58.2,33.2C62.7,33.2 66.3,35.4 68.9,39L67.6,40C65.4,36.7 62.1,34.7 58.1,34.7C52.1,34.7 46.9,40 46.9,45.9C46.9,52 51.9,57.1 58.1,57.1C60.8,57.1 63.3,56 65.4,54.4C67.5,52.6 68.3,50.5 68.4,47.8L59.5,47.8L59.5,46.3L70,46.4Z" style="fill-rule:nonzero;"/>
                <path d="M76.7,35L76.7,44L86.7,44L86.7,45.5L76.7,45.5L76.7,56.8L86.9,56.8L86.9,58.3L75.1,58.3L75.1,33.6L86.9,33.6L86.9,35L76.7,35Z" style="fill-rule:nonzero;"/>
                <path d="M115.4,59.1L94.7,37L94.7,58.2L93.1,58.2L93.1,33.2L113.9,55.1L113.9,33.6L115.5,33.6L115.4,59.1Z" style="fill-rule:nonzero;"/>
                <path d="M124.9,35L124.9,44L134.9,44L134.9,45.5L124.9,45.5L124.9,56.8L135.1,56.8L135.1,58.3L123.3,58.3L123.3,33.6L135.1,33.6L135.1,35L124.9,35Z" style="fill-rule:nonzero;"/>
                <path d="M153.5,58.3L151.7,58.3L143.6,46.6L142.8,46.6L142.8,58.3L141.2,58.3L141.2,33.6L144.3,33.6C146.3,33.6 148.3,33.6 149.9,34.8C151.7,36 152.4,38 152.4,40.1C152.4,44.4 149.4,46.6 145.3,46.6L153.5,58.3ZM144.8,45.1C146.3,45.1 147.9,45 149.1,44C150.3,43 150.8,41.6 150.8,40.1C150.8,38.3 149.9,36.4 148.2,35.6C146.9,35 145.2,35 143.8,35L142.8,35L142.8,45.1L144.8,45.1Z" style="fill-rule:nonzero;"/>
            </g>
            <g>
                <path d="M0,63.4L0,62L153.5,62L153.5,63.4L0,63.4Z" style="fill-rule:nonzero;"/>
                <path d="M0,1.3L0,0L153.5,0L153.5,1.3L0,1.3Z" style="fill-rule:nonzero;"/>
            </g>
        </g>
    </g>
</svg>
