<?xml version="1.0" encoding="UTF-8" standalone="no"?>
<!DOCTYPE svg PUBLIC "-//W3C//DTD SVG 1.1//EN" "http://www.w3.org/Graphics/SVG/1.1/DTD/svg11.dtd">
<svg width="100%" height="100%" viewBox="0 0 601 55" version="1.1" xmlns="http://www.w3.org/2000/svg" xmlns:xlink="http://www.w3.org/1999/xlink" xml:space="preserve" xmlns:serif="http://www.serif.com/" style="fill-rule:evenodd;clip-rule:evenodd;stroke-linejoin:round;stroke-miterlimit:2;">
    <g transform="matrix(1,0,0,1,-26.5,-299.274)">
        <path d="M515.1,320.9L535,320.9C538.2,320.8 540.7,318.1 540.7,314.9C540.7,311.5 538.5,309.2 534.9,309.2L515.1,309.2L515.1,320.9ZM515.1,330.8L515.1,347.8C515.1,351.2 514,352.3 510.5,352.3C509.3,352.3 508.1,352.2 507,352.3C505.2,352.4 504.3,351.5 504,349.8C503.9,349.1 503.8,348.4 503.8,347.7L503.8,304.7C503.8,303.5 504.2,302.1 504.8,301.1C505.2,300.4 506.4,299.8 507.3,299.8C517.8,299.8 528.3,299.7 538.9,300C546.5,300.2 551,304.9 551.4,312.5C551.5,315.5 551.4,318.7 550.5,321.5C548.8,326.9 544.5,329.4 539.2,330.3C538.7,330.4 538.1,330.6 537.6,330.8C537.9,331.4 538,332.2 538.4,332.6C541.3,336 544.3,339.3 547.2,342.7C547.9,343.5 548.6,344.3 549,345.3C549.8,347.4 549.7,349.6 547.9,351.1C545.9,352.7 543.4,352.5 541.2,351.5C540,351 539,350 538.2,348.9C534.2,343.8 530.3,338.7 526.5,333.5C525,331.4 523.2,330.3 520.6,330.6C518.8,331 517,330.8 515.1,330.8ZM624.6,300.9C623.9,301.5 623.2,302.2 622.4,302.8C613.3,309.1 604.2,315.3 595.1,321.5C594.5,321.9 593.9,322.3 593.4,322.8C592.2,323.9 592.2,325 593.3,326.2C593.8,326.7 594.4,327.1 595,327.5C604.9,334.5 614.8,341.4 624.6,348.4C625.1,348.7 625.7,349 626,349.5C626.3,350.1 626.6,350.9 626.5,351.6C626.4,351.9 625.5,352.4 625,352.4C621.1,352.5 617.1,352.7 613.2,352.3C611.1,352.1 609,350.9 607.2,349.6C598.9,343.7 590.8,337.7 582.6,331.7C581.7,331 580.6,329.8 579.5,330.9C578.8,331.6 578.4,332.9 578.4,333.9C578.3,338.4 578.4,342.8 578.3,347.3C578.3,351.1 576.8,352.5 573.1,352.5L570.1,352.5C567.7,352.5 566.1,351.1 565.9,348.7C565.8,348.1 565.8,347.5 565.8,346.9L565.8,305.6C565.8,301.2 567.2,300 571.6,299.8C577.1,299.5 578.5,301.5 578.3,306.6C578.2,309.7 578.2,312.8 578.3,315.9C578.3,316.9 578.8,318 579.1,319C580.2,318.7 581.6,318.7 582.5,318C589.9,312.9 597.3,307.8 604.6,302.6C607.4,300.6 610.4,299.6 613.8,299.7C616.5,299.8 619.2,299.7 621.9,299.7C622.7,299.7 623.5,299.9 624.4,300.1C624.5,300.4 624.5,300.7 624.6,300.9ZM462.9,342.6C466.9,335.3 470.7,328.4 474.7,321.2L451.1,321.2C455.1,328.4 458.9,335.3 462.9,342.6ZM462.6,352.4C458.9,352.7 456.3,350.9 454.4,347.6C446.9,334.4 439.4,321.2 432,308C431.3,306.8 431,305.1 431.2,303.8C431.4,302.6 432.5,301.2 433.6,300.6C435.8,299.4 440,300.5 441.6,302.6C443.2,304.6 444.7,306.8 446.1,308.9C447.2,310.6 448.7,311.4 450.8,311.4L475,311.4C477,311.4 478.5,310.7 479.6,309C480.9,307 482.4,305.1 483.7,303.1C485.6,300.3 488.5,299.8 491.9,300.5C494.5,301 495.6,304.8 494.1,307.5C490.4,314.1 486.6,320.8 482.8,327.4C479,334.1 475.2,340.8 471.4,347.4C469.2,351.3 467.3,352.4 462.6,352.4ZM368.7,300.1C371.8,299.9 373.5,301.8 374.7,304.5C378.2,312.9 381.7,321.2 385.3,329.6C385.8,330.9 386.4,332.2 387,333.4C387.6,334.5 388.4,334.6 389.1,333.4C389.5,332.8 389.8,332.1 390.1,331.4C393.9,322.5 397.6,313.6 401.3,304.7C403.1,300.4 406,299.1 410.4,300.4C412.8,301.1 414,302.9 414.9,305C419.1,314.4 423.3,323.8 427.5,333.2C429.2,336.9 430.8,340.6 432.5,344.3C432.6,344.6 432.8,344.8 432.9,345.1C433.6,347 434.5,349.1 432.8,350.9C431,352.7 428.7,352.7 426.4,352.1C423.5,351.2 421.8,349 420.6,346.4C416.8,337.9 413.1,329.5 409.3,321C408.8,319.9 407.9,318.4 407,318.3C405.3,318 405.2,320 404.7,321.2C401,329.9 397.4,338.7 393.7,347.5C393.2,348.6 392.7,349.8 391.9,350.7C389.9,353.2 386.2,353.2 384.2,350.7C383.4,349.8 382.9,348.6 382.4,347.5C378.6,338.5 374.9,329.5 371.1,320.4C370.9,320 370.8,319.5 370.5,319.1C369.7,317.8 368.6,317.8 367.7,319.1C367.4,319.6 367.1,320.2 366.8,320.8C363,329.3 359.2,337.8 355.5,346.3C353.6,350.7 350.5,352.7 346.6,352.3C343,352 341.4,349.8 342.7,346.5C344.5,341.8 346.7,337.2 348.7,332.6C352.8,323.3 357,314.1 361.1,304.8C362.7,301.7 364.9,299.9 368.7,300.1ZM299.9,320.9L319.8,320.9C323,320.9 325.5,318.1 325.5,314.9C325.5,311.5 323.3,309.2 319.7,309.2L299.9,309.2L299.9,320.9ZM299.9,330.8L299.9,347.7C299.9,351.3 298.8,352.4 295.1,352.3C294,352.3 292.9,352.2 291.8,352.3C290,352.4 289.1,351.5 288.8,349.8C288.7,349.1 288.7,348.3 288.7,347.5L288.7,304.8C288.7,303.8 288.9,302.7 289.2,301.7C289.7,300.4 290.7,299.7 292.2,299.7C302.7,299.8 313.2,299.7 323.8,300C331.4,300.2 335.8,305 336.4,312.5C336.6,315.8 336.6,319.1 335.2,322.2C333.1,327.1 329.1,329.4 324,330.2C322.1,330.5 321.9,331 323.1,332.4C326.1,335.9 329.2,339.4 332.3,342.9C333.5,344.3 334.4,345.7 334.2,347.7C333.9,351.9 331.2,352.8 327.2,351.9C325.7,351.6 324.1,350.3 323,349C319,344 315.2,338.9 311.4,333.7C309.8,331.5 308,330.3 305.2,330.7C303.4,331 301.7,330.8 299.9,330.8ZM231.1,326.3L231.1,305.5C231.1,302.2 233,300.3 236.4,300.3L272.2,300.3C274.1,300.3 275.9,300.6 276.8,302.5C277.8,304.7 277.3,306.9 275.8,308.6C275.2,309.3 273.9,309.7 272.8,309.7C264.5,309.8 256.2,309.7 247.9,309.7C244.2,309.7 242.9,311 242.9,314.7C242.9,315.6 242.9,316.5 243,317.3C243.4,319.6 244.3,321.6 247.6,321.5C254.1,321.3 260.7,321.4 267.2,321.4C269.9,321.4 271.6,323 271.6,325.5C271.6,328.7 269.9,330.6 267.1,330.7C260.5,330.7 253.9,330.8 247.3,330.8C244.2,330.8 243.1,331.9 243,335C243,336.1 242.9,337.2 242.9,338.4C242.9,341.1 244.9,343.2 247.7,343.2C255.9,343.2 264.2,343.2 272.4,343.1C276.9,343.1 278.8,345.9 277.1,350.1C276.5,351.6 275.4,352.5 273.6,352.5L235,352.5C232.5,352.5 231.1,350.9 231,347.8C230.9,344 231,340.2 231,336.3C231.1,336.2 231.1,326.3 231.1,326.3ZM197.9,353.3C195.4,352.2 194.8,350.2 194.8,347.6C194.9,337 194.8,326.4 194.8,315.9C194.8,315.1 194.8,314.4 194.7,313.6C194.4,311.2 192.9,310 190.5,310C184.9,310 179.3,309.9 173.8,310C171.3,310.1 169.6,308.1 169.5,305.3C169.4,302.3 171.2,300.2 173.8,300.2L216.8,300.2C219.4,300.2 221.1,302.3 221.1,305.3C221.1,308.2 219.5,310 216.8,310L211.7,310C208.6,310 207,311.5 207,314.6L207,346.7C207,351.3 206.7,351.8 202.8,353.4C202.9,353.3 197.9,353.3 197.9,353.3ZM158.6,331.5L146.8,310.1L135,331.5L158.6,331.5ZM146.8,300.2C150.7,300 153.3,301.7 155.1,304.9C162.6,318.2 170.2,331.4 177.6,344.7C178.3,345.9 178.5,347.6 178.4,349C178.3,350.9 176.6,352.2 174.7,352.3C171.3,352.6 168.6,351.6 166.8,348.5C165.7,346.7 164.4,345 163.2,343.3C162.3,341.9 161,341.2 159.3,341.2L134.1,341.2C132.4,341.2 131.1,342 130.1,343.4C128.7,345.5 127.2,347.6 125.7,349.6C123.9,352 120.3,353.1 117.5,352.2C115,351.4 114,347.8 115.6,345C119.3,338.4 123.1,331.8 126.8,325.3C130.6,318.6 134.4,312 138.2,305.3C140.2,301.8 142.9,299.9 146.8,300.2ZM26.5,302.2C28.4,299.2 32.1,298.4 35.4,300.3C37.6,301.5 38.9,303.5 39.9,305.8C43.6,314.3 47.4,322.7 51.2,331.2C51.4,331.6 51.4,332 51.7,332.3C52.2,332.8 52.8,333.6 53.3,333.6C53.9,333.5 54.7,332.8 55,332.2C57.3,326.8 59.5,321.4 61.8,316C63.5,311.8 65.3,307.7 67,303.5C67.8,301.5 69,299.9 71.3,299.5C73.7,299.1 75.6,300 76.8,302.4C77.8,304.3 78.5,306.2 79.4,308.2C82.7,316 85.9,323.9 89.3,331.7C89.6,332.5 90.5,333.1 91.1,333.7C91.8,333 92.7,332.5 93,331.7C96.9,323.2 100.6,314.6 104.5,306C105.3,304.3 106.3,302.7 107.6,301.4C109.7,299.3 112.3,298.9 115.1,299.8C117.3,300.5 118.2,302 117.7,304.3C117.5,305.2 117.3,306 116.9,306.8C110.9,320.3 104.9,333.8 98.8,347.2C97.6,350 95.6,351.6 92.4,351.6C88.5,351.7 86.9,350.7 85.4,347C82.4,339.9 79.5,332.9 76.5,325.8C75.7,323.8 74.9,321.8 74,319.8C73.6,318.9 72.8,318.2 72.2,317.4C71.6,318.2 70.7,318.9 70.3,319.8C67.6,326 65,332.3 62.4,338.6C61.2,341.4 60.1,344.1 58.9,346.9C57.8,349.7 56.2,351.7 52.7,351.7C49.2,351.7 46.8,350.3 45.3,347.1C40.3,335.5 35.2,324 30,312.4C28.8,309.8 27.6,307.2 26.5,304.6L26.5,302.2Z" style="fill:white;fill-rule:nonzero;"/>
    </g>
</svg>
