<?xml version="1.0" encoding="UTF-8" standalone="no"?>
<!DOCTYPE svg PUBLIC "-//W3C//DTD SVG 1.1//EN" "http://www.w3.org/Graphics/SVG/1.1/DTD/svg11.dtd">
<svg width="100%" height="100%" viewBox="0 0 4787 921" version="1.1" xmlns="http://www.w3.org/2000/svg" xmlns:xlink="http://www.w3.org/1999/xlink" xml:space="preserve" xmlns:serif="http://www.serif.com/" style="fill-rule:evenodd;clip-rule:evenodd;stroke-linejoin:round;stroke-miterlimit:2;">
    <g transform="matrix(1,0,0,1,-1773.17,-3706.29)">
        <g transform="matrix(4.16667,0,0,4.16667,0,0)">
            <g transform="matrix(1,0,0,1,9.06136,207.188)">
                <g transform="matrix(1,0,0,1,0,-207.556)">
                    <g>
                        <g transform="matrix(1,0,0,1,578.82,959.543)">
                            <path d="M-1.5,-69.563L-1.5,5.424C-6.545,0.928 -12.748,-2.291 -19.609,-3.718L-19.609,-54.256C-19.609,-54.295 -19.611,-54.334 -19.614,-54.372L-19.625,-54.521C-19.982,-61.174 -24.535,-66.969 -30.878,-68.994L-30.878,-69.563L-1.5,-69.563Z" style="fill:rgb(29,29,27);"/>
                        </g>
                        <g transform="matrix(1,0,0,1,578.82,1081.38)">
                            <path d="M-1.5,-86.119L-1.5,29.152L-30.788,29.152L-30.788,28.577C-24.916,26.676 -20.511,21.547 -19.665,15.471L-19.63,15.267C-19.616,15.184 -19.609,15.101 -19.609,15.017L-19.609,-81.791C-19.609,-84.322 -20.41,-86.632 -21.757,-88.512C-24.302,-92.062 -28.77,-94.085 -33.444,-93.154L-87.92,-82.368L-87.92,-101.036L-32.874,-111.912C-16.632,-115.116 -1.5,-102.677 -1.5,-86.119Z" style="fill:rgb(29,29,27);"/>
                        </g>
                        <g transform="matrix(1,0,0,1,426.294,905.869)">
                            <path d="M1.5,188.793C1.527,187.409 4.506,125.86 4.506,94.608C4.506,76.332 1.573,1.315 1.5,-0.042C1.482,-7.072 -3.097,-13.197 -9.794,-15.322L-9.794,-15.887L19.616,-15.887L19.616,204.665L-9.794,204.665L-9.794,204.1C-3.088,201.968 1.493,195.831 1.5,188.793Z" style="fill:rgb(29,29,27);"/>
                        </g>
                        <g transform="matrix(1,0,0,1,490.244,1045.72)">
                            <path d="M-1.5,64.461L-1.5,65.03L-30.891,65.03L-30.891,-8.657C-25.683,-4.024 -19.465,-0.894 -12.769,0.497L-12.769,49.723C-12.769,49.762 -12.768,49.8 -12.765,49.839L-12.753,49.989C-12.396,56.641 -7.843,62.435 -1.5,64.461Z" style="fill:rgb(29,29,27);"/>
                        </g>
                        <g transform="matrix(1,0,0,1,547.286,924.915)">
                            <path d="M-1.5,78.111L-1.5,96.767L-56.546,107.643C-72.788,110.847 -87.933,98.419 -87.933,81.849L-87.933,-34.716L-58.632,-34.716L-58.632,-34.142C-64.504,-32.241 -68.91,-27.111 -69.756,-21.035L-69.79,-20.83C-69.804,-20.747 -69.811,-20.664 -69.811,-20.581L-69.811,77.521C-69.811,80.054 -69.009,82.363 -67.662,84.242C-65.118,87.792 -60.65,89.816 -55.976,88.884L-1.5,78.111Z" style="fill:rgb(29,29,27);"/>
                        </g>
                        <g transform="matrix(1,0,0,1,610.395,1094.87)">
                            <path d="M-1.5,-188.802C-1.544,-187.429 -4.495,-125.843 -4.495,-94.866C-4.495,-63.731 -1.543,-1.337 -1.5,0.025C-1.489,7.062 3.091,13.194 9.794,15.322L9.794,15.887L-19.616,15.887L-19.616,-204.665L9.794,-204.665L9.794,-204.1C3.091,-201.969 -1.489,-195.836 -1.5,-188.802Z" style="fill:rgb(29,29,27);"/>
                        </g>
                    </g>
                </g>
                <g transform="matrix(0.233754,0,0,0.233754,6.42711,-808.826)">
                    <g transform="matrix(562.5,0,0,562.5,3023.1,6787)">
                        <path d="M0.652,-0L0.544,-0L0.544,-0.326L0.203,-0.326L0.203,-0L0.095,-0L0.095,-0.714L0.203,-0.714L0.203,-0.419L0.544,-0.419L0.544,-0.714L0.652,-0.714L0.652,-0Z" style="fill:rgb(29,29,27);fill-rule:nonzero;"/>
                    </g>
                    <g transform="matrix(562.5,0,0,562.5,3443.7,6787)">
                        <path d="M0.725,-0.358C0.725,-0.303 0.718,-0.253 0.704,-0.208C0.69,-0.163 0.669,-0.124 0.642,-0.091C0.614,-0.059 0.579,-0.034 0.538,-0.017C0.497,0.001 0.448,0.01 0.393,0.01C0.336,0.01 0.287,0.001 0.246,-0.017C0.204,-0.034 0.169,-0.059 0.142,-0.092C0.114,-0.124 0.094,-0.163 0.08,-0.208C0.067,-0.254 0.06,-0.304 0.06,-0.359C0.06,-0.432 0.072,-0.496 0.096,-0.551C0.12,-0.606 0.157,-0.649 0.207,-0.679C0.256,-0.71 0.319,-0.725 0.394,-0.725C0.467,-0.725 0.528,-0.71 0.577,-0.68C0.626,-0.649 0.663,-0.607 0.688,-0.552C0.712,-0.497 0.725,-0.432 0.725,-0.358ZM0.174,-0.358C0.174,-0.301 0.182,-0.253 0.197,-0.211C0.213,-0.17 0.237,-0.138 0.269,-0.116C0.301,-0.094 0.343,-0.083 0.393,-0.083C0.443,-0.083 0.485,-0.094 0.517,-0.116C0.549,-0.138 0.573,-0.17 0.588,-0.211C0.603,-0.253 0.611,-0.301 0.611,-0.358C0.611,-0.444 0.593,-0.511 0.559,-0.559C0.524,-0.608 0.469,-0.632 0.394,-0.632C0.343,-0.632 0.302,-0.621 0.27,-0.599C0.237,-0.577 0.213,-0.545 0.197,-0.504C0.182,-0.464 0.174,-0.415 0.174,-0.358Z" style="fill:rgb(29,29,27);fill-rule:nonzero;"/>
                    </g>
                    <g transform="matrix(562.5,0,0,562.5,3885.04,6787)">
                        <path d="M0.095,-0L0.095,-0.714L0.203,-0.714L0.203,-0.093L0.51,-0.093L0.51,-0L0.095,-0Z" style="fill:rgb(29,29,27);fill-rule:nonzero;"/>
                    </g>
                    <g transform="matrix(562.5,0,0,562.5,4187.72,6787)">
                        <path d="M0.095,-0L0.095,-0.714L0.203,-0.714L0.203,-0.093L0.51,-0.093L0.51,-0L0.095,-0Z" style="fill:rgb(29,29,27);fill-rule:nonzero;"/>
                    </g>
                    <g transform="matrix(562.5,0,0,562.5,4490.39,6787)">
                        <path d="M0.292,-0.38L0.466,-0.714L0.583,-0.714L0.346,-0.277L0.346,-0L0.238,-0L0.238,-0.273L0,-0.714L0.118,-0.714L0.292,-0.38Z" style="fill:rgb(29,29,27);fill-rule:nonzero;"/>
                    </g>
                    <g transform="matrix(562.5,0,0,562.5,4849.51,6787)">
                        <path d="M0.93,-0.714L0.743,-0L0.626,-0L0.501,-0.441C0.498,-0.452 0.495,-0.465 0.491,-0.479C0.487,-0.493 0.484,-0.507 0.481,-0.522C0.477,-0.536 0.474,-0.549 0.472,-0.561C0.47,-0.573 0.468,-0.582 0.467,-0.588C0.466,-0.582 0.465,-0.573 0.463,-0.561C0.46,-0.55 0.458,-0.537 0.455,-0.522C0.452,-0.508 0.449,-0.494 0.445,-0.48C0.441,-0.465 0.438,-0.452 0.435,-0.44L0.313,-0L0.196,-0L0.009,-0.714L0.119,-0.714L0.225,-0.288C0.228,-0.274 0.232,-0.26 0.235,-0.245C0.239,-0.229 0.242,-0.214 0.245,-0.199C0.248,-0.184 0.251,-0.169 0.253,-0.155C0.256,-0.14 0.258,-0.127 0.259,-0.115C0.261,-0.128 0.263,-0.141 0.266,-0.156C0.268,-0.171 0.271,-0.186 0.274,-0.201C0.277,-0.217 0.281,-0.232 0.284,-0.246C0.288,-0.261 0.291,-0.275 0.295,-0.287L0.414,-0.714L0.521,-0.714L0.644,-0.285C0.648,-0.272 0.651,-0.258 0.655,-0.243C0.658,-0.228 0.662,-0.213 0.665,-0.198C0.668,-0.183 0.671,-0.168 0.674,-0.154C0.676,-0.139 0.678,-0.127 0.68,-0.115C0.682,-0.131 0.685,-0.149 0.689,-0.169C0.692,-0.188 0.696,-0.209 0.701,-0.229C0.705,-0.25 0.71,-0.27 0.715,-0.288L0.82,-0.714L0.93,-0.714Z" style="fill:rgb(29,29,27);fill-rule:nonzero;"/>
                    </g>
                    <g transform="matrix(562.5,0,0,562.5,5409,6787)">
                        <path d="M0.725,-0.358C0.725,-0.303 0.718,-0.253 0.704,-0.208C0.69,-0.163 0.669,-0.124 0.642,-0.091C0.614,-0.059 0.579,-0.034 0.538,-0.017C0.497,0.001 0.448,0.01 0.393,0.01C0.336,0.01 0.287,0.001 0.246,-0.017C0.204,-0.034 0.169,-0.059 0.142,-0.092C0.114,-0.124 0.094,-0.163 0.08,-0.208C0.067,-0.254 0.06,-0.304 0.06,-0.359C0.06,-0.432 0.072,-0.496 0.096,-0.551C0.12,-0.606 0.157,-0.649 0.207,-0.679C0.256,-0.71 0.319,-0.725 0.394,-0.725C0.467,-0.725 0.528,-0.71 0.577,-0.68C0.626,-0.649 0.663,-0.607 0.688,-0.552C0.712,-0.497 0.725,-0.432 0.725,-0.358ZM0.174,-0.358C0.174,-0.301 0.182,-0.253 0.197,-0.211C0.213,-0.17 0.237,-0.138 0.269,-0.116C0.301,-0.094 0.343,-0.083 0.393,-0.083C0.443,-0.083 0.485,-0.094 0.517,-0.116C0.549,-0.138 0.573,-0.17 0.588,-0.211C0.603,-0.253 0.611,-0.301 0.611,-0.358C0.611,-0.444 0.593,-0.511 0.559,-0.559C0.524,-0.608 0.469,-0.632 0.394,-0.632C0.343,-0.632 0.302,-0.621 0.27,-0.599C0.237,-0.577 0.213,-0.545 0.197,-0.504C0.182,-0.464 0.174,-0.415 0.174,-0.358Z" style="fill:rgb(29,29,27);fill-rule:nonzero;"/>
                    </g>
                    <g transform="matrix(562.5,0,0,562.5,5850.34,6787)">
                        <path d="M0.725,-0.358C0.725,-0.303 0.718,-0.253 0.704,-0.208C0.69,-0.163 0.669,-0.124 0.642,-0.091C0.614,-0.059 0.579,-0.034 0.538,-0.017C0.497,0.001 0.448,0.01 0.393,0.01C0.336,0.01 0.287,0.001 0.246,-0.017C0.204,-0.034 0.169,-0.059 0.142,-0.092C0.114,-0.124 0.094,-0.163 0.08,-0.208C0.067,-0.254 0.06,-0.304 0.06,-0.359C0.06,-0.432 0.072,-0.496 0.096,-0.551C0.12,-0.606 0.157,-0.649 0.207,-0.679C0.256,-0.71 0.319,-0.725 0.394,-0.725C0.467,-0.725 0.528,-0.71 0.577,-0.68C0.626,-0.649 0.663,-0.607 0.688,-0.552C0.712,-0.497 0.725,-0.432 0.725,-0.358ZM0.174,-0.358C0.174,-0.301 0.182,-0.253 0.197,-0.211C0.213,-0.17 0.237,-0.138 0.269,-0.116C0.301,-0.094 0.343,-0.083 0.393,-0.083C0.443,-0.083 0.485,-0.094 0.517,-0.116C0.549,-0.138 0.573,-0.17 0.588,-0.211C0.603,-0.253 0.611,-0.301 0.611,-0.358C0.611,-0.444 0.593,-0.511 0.559,-0.559C0.524,-0.608 0.469,-0.632 0.394,-0.632C0.343,-0.632 0.302,-0.621 0.27,-0.599C0.237,-0.577 0.213,-0.545 0.197,-0.504C0.182,-0.464 0.174,-0.415 0.174,-0.358Z" style="fill:rgb(29,29,27);fill-rule:nonzero;"/>
                    </g>
                    <g transform="matrix(562.5,0,0,562.5,6291.68,6787)">
                        <path d="M0.671,-0.364C0.671,-0.283 0.656,-0.216 0.626,-0.162C0.597,-0.108 0.553,-0.068 0.497,-0.041C0.44,-0.014 0.372,-0 0.292,-0L0.095,-0L0.095,-0.714L0.313,-0.714C0.387,-0.714 0.45,-0.701 0.504,-0.674C0.557,-0.648 0.598,-0.608 0.627,-0.556C0.657,-0.504 0.671,-0.44 0.671,-0.364ZM0.558,-0.36C0.558,-0.42 0.548,-0.47 0.529,-0.508C0.51,-0.547 0.482,-0.576 0.445,-0.595C0.408,-0.614 0.362,-0.623 0.308,-0.623L0.203,-0.623L0.203,-0.091L0.291,-0.091C0.38,-0.091 0.447,-0.114 0.491,-0.159C0.535,-0.204 0.558,-0.271 0.558,-0.36Z" style="fill:rgb(29,29,27);fill-rule:nonzero;"/>
                    </g>
                    <g transform="matrix(562.5,0,0,562.5,6702.91,6787)">
                    </g>
                    <g transform="matrix(562.5,0,0,562.5,3023.1,7324.5)">
                        <path d="M0.652,-0L0.544,-0L0.544,-0.326L0.203,-0.326L0.203,-0L0.095,-0L0.095,-0.714L0.203,-0.714L0.203,-0.419L0.544,-0.419L0.544,-0.714L0.652,-0.714L0.652,-0Z" style="fill:rgb(29,29,27);fill-rule:nonzero;"/>
                    </g>
                    <g transform="matrix(562.5,0,0,562.5,3521.33,7324.5)">
                        <path d="M0.538,-0L0.464,-0.205L0.188,-0.205L0.114,-0L0,-0L0.269,-0.717L0.385,-0.717L0.653,-0L0.538,-0ZM0.435,-0.299L0.363,-0.502C0.361,-0.51 0.357,-0.521 0.353,-0.536C0.348,-0.551 0.343,-0.566 0.338,-0.582C0.333,-0.598 0.329,-0.611 0.326,-0.621C0.323,-0.608 0.319,-0.593 0.315,-0.578C0.31,-0.562 0.306,-0.548 0.302,-0.534C0.298,-0.52 0.294,-0.51 0.292,-0.502L0.219,-0.299L0.435,-0.299Z" style="fill:rgb(29,29,27);fill-rule:nonzero;"/>
                    </g>
                    <g transform="matrix(562.5,0,0,562.5,3966.79,7324.5)">
                        <path d="M0.293,-0.714C0.354,-0.714 0.405,-0.706 0.444,-0.691C0.484,-0.677 0.514,-0.654 0.533,-0.624C0.553,-0.593 0.562,-0.555 0.562,-0.508C0.562,-0.472 0.556,-0.442 0.542,-0.417C0.529,-0.392 0.512,-0.371 0.491,-0.355C0.469,-0.339 0.446,-0.326 0.422,-0.317L0.623,-0L0.5,-0L0.326,-0.289L0.203,-0.289L0.203,-0L0.095,-0L0.095,-0.714L0.293,-0.714ZM0.286,-0.622L0.203,-0.622L0.203,-0.379L0.292,-0.379C0.348,-0.379 0.388,-0.39 0.413,-0.411C0.439,-0.432 0.451,-0.463 0.451,-0.504C0.451,-0.547 0.438,-0.578 0.411,-0.596C0.384,-0.614 0.342,-0.622 0.286,-0.622Z" style="fill:rgb(29,29,27);fill-rule:nonzero;"/>
                    </g>
                    <g transform="matrix(562.5,0,0,562.5,4400.65,7324.5)">
                        <path d="M0.671,-0.364C0.671,-0.283 0.656,-0.216 0.626,-0.162C0.597,-0.108 0.553,-0.068 0.497,-0.041C0.44,-0.014 0.372,-0 0.292,-0L0.095,-0L0.095,-0.714L0.313,-0.714C0.387,-0.714 0.45,-0.701 0.504,-0.674C0.557,-0.648 0.598,-0.608 0.627,-0.556C0.657,-0.504 0.671,-0.44 0.671,-0.364ZM0.558,-0.36C0.558,-0.42 0.548,-0.47 0.529,-0.508C0.51,-0.547 0.482,-0.576 0.445,-0.595C0.408,-0.614 0.362,-0.623 0.308,-0.623L0.203,-0.623L0.203,-0.091L0.291,-0.091C0.38,-0.091 0.447,-0.114 0.491,-0.159C0.535,-0.204 0.558,-0.271 0.558,-0.36Z" style="fill:rgb(29,29,27);fill-rule:nonzero;"/>
                    </g>
                    <g transform="matrix(562.5,0,0,562.5,4889.5,7324.5)">
                        <path d="M0.93,-0.714L0.743,-0L0.626,-0L0.501,-0.441C0.498,-0.452 0.495,-0.465 0.491,-0.479C0.487,-0.493 0.484,-0.507 0.481,-0.522C0.477,-0.536 0.474,-0.549 0.472,-0.561C0.47,-0.573 0.468,-0.582 0.467,-0.588C0.466,-0.582 0.465,-0.573 0.463,-0.561C0.46,-0.55 0.458,-0.537 0.455,-0.522C0.452,-0.508 0.449,-0.494 0.445,-0.48C0.441,-0.465 0.438,-0.452 0.435,-0.44L0.313,-0L0.196,-0L0.009,-0.714L0.119,-0.714L0.225,-0.288C0.228,-0.274 0.232,-0.26 0.235,-0.245C0.239,-0.229 0.242,-0.214 0.245,-0.199C0.248,-0.184 0.251,-0.169 0.253,-0.155C0.256,-0.14 0.258,-0.127 0.259,-0.115C0.261,-0.128 0.263,-0.141 0.266,-0.156C0.268,-0.171 0.271,-0.186 0.274,-0.201C0.277,-0.217 0.281,-0.232 0.284,-0.246C0.288,-0.261 0.291,-0.275 0.295,-0.287L0.414,-0.714L0.521,-0.714L0.644,-0.285C0.648,-0.272 0.651,-0.258 0.655,-0.243C0.658,-0.228 0.662,-0.213 0.665,-0.198C0.668,-0.183 0.671,-0.168 0.674,-0.154C0.676,-0.139 0.678,-0.127 0.68,-0.115C0.682,-0.131 0.685,-0.149 0.689,-0.169C0.692,-0.188 0.696,-0.209 0.701,-0.229C0.705,-0.25 0.71,-0.27 0.715,-0.288L0.82,-0.714L0.93,-0.714Z" style="fill:rgb(29,29,27);fill-rule:nonzero;"/>
                    </g>
                    <g transform="matrix(562.5,0,0,562.5,5495.68,7324.5)">
                        <path d="M0.538,-0L0.464,-0.205L0.188,-0.205L0.114,-0L0,-0L0.269,-0.717L0.385,-0.717L0.653,-0L0.538,-0ZM0.435,-0.299L0.363,-0.502C0.361,-0.51 0.357,-0.521 0.353,-0.536C0.348,-0.551 0.343,-0.566 0.338,-0.582C0.333,-0.598 0.329,-0.611 0.326,-0.621C0.323,-0.608 0.319,-0.593 0.315,-0.578C0.31,-0.562 0.306,-0.548 0.302,-0.534C0.298,-0.52 0.294,-0.51 0.292,-0.502L0.219,-0.299L0.435,-0.299Z" style="fill:rgb(29,29,27);fill-rule:nonzero;"/>
                    </g>
                    <g transform="matrix(562.5,0,0,562.5,5941.14,7324.5)">
                        <path d="M0.293,-0.714C0.354,-0.714 0.405,-0.706 0.444,-0.691C0.484,-0.677 0.514,-0.654 0.533,-0.624C0.553,-0.593 0.562,-0.555 0.562,-0.508C0.562,-0.472 0.556,-0.442 0.542,-0.417C0.529,-0.392 0.512,-0.371 0.491,-0.355C0.469,-0.339 0.446,-0.326 0.422,-0.317L0.623,-0L0.5,-0L0.326,-0.289L0.203,-0.289L0.203,-0L0.095,-0L0.095,-0.714L0.293,-0.714ZM0.286,-0.622L0.203,-0.622L0.203,-0.379L0.292,-0.379C0.348,-0.379 0.388,-0.39 0.413,-0.411C0.439,-0.432 0.451,-0.463 0.451,-0.504C0.451,-0.547 0.438,-0.578 0.411,-0.596C0.384,-0.614 0.342,-0.622 0.286,-0.622Z" style="fill:rgb(29,29,27);fill-rule:nonzero;"/>
                    </g>
                    <g transform="matrix(562.5,0,0,562.5,6375,7324.5)">
                        <path d="M0.497,-0L0.095,-0L0.095,-0.714L0.497,-0.714L0.497,-0.622L0.203,-0.622L0.203,-0.418L0.479,-0.418L0.479,-0.327L0.203,-0.327L0.203,-0.093L0.497,-0.093L0.497,-0Z" style="fill:rgb(29,29,27);fill-rule:nonzero;"/>
                    </g>
                    <g transform="matrix(562.5,0,0,562.5,6688.48,7324.5)">
                    </g>
                </g>
            </g>
        </g>
    </g>
</svg>
