<?xml version="1.0" encoding="UTF-8" standalone="no"?>
<!DOCTYPE svg PUBLIC "-//W3C//DTD SVG 1.1//EN" "http://www.w3.org/Graphics/SVG/1.1/DTD/svg11.dtd">
<svg width="100%" height="100%" viewBox="0 0 4509 929" version="1.1" xmlns="http://www.w3.org/2000/svg" xmlns:xlink="http://www.w3.org/1999/xlink" xml:space="preserve" xmlns:serif="http://www.serif.com/" style="fill-rule:evenodd;clip-rule:evenodd;stroke-linejoin:round;stroke-miterlimit:2;">
    <g transform="matrix(1,0,0,1,-1059.09,-1025.54)">
        <g transform="matrix(1,0,0,1,-10318.8,-2355.04)">
            <g transform="matrix(0.983459,0,0,0.983459,9816.07,-3058.33)">
                <g transform="matrix(545.833,0,0,545.833,2863.92,6948.4)">
                    <path d="M0.07,-0L0.07,-0.72L0.175,-0.72L0.175,-0.41L0.535,-0.41L0.535,-0.72L0.639,-0.72L0.639,-0L0.535,-0L0.535,-0.311L0.175,-0.311L0.175,-0L0.07,-0Z" style="fill-rule:nonzero;"/>
                </g>
                <g transform="matrix(545.833,0,0,545.833,3251.1,6948.4)">
                    <path d="M0.37,0.015C0.298,0.015 0.237,-0.001 0.186,-0.032C0.136,-0.064 0.097,-0.108 0.07,-0.164C0.043,-0.22 0.03,-0.286 0.03,-0.36C0.03,-0.434 0.043,-0.5 0.07,-0.556C0.097,-0.612 0.136,-0.656 0.186,-0.688C0.237,-0.719 0.298,-0.735 0.37,-0.735C0.442,-0.735 0.504,-0.719 0.554,-0.688C0.605,-0.656 0.644,-0.612 0.671,-0.556C0.697,-0.5 0.711,-0.434 0.711,-0.36C0.711,-0.286 0.697,-0.22 0.671,-0.164C0.644,-0.108 0.605,-0.064 0.554,-0.032C0.504,-0.001 0.442,0.015 0.37,0.015ZM0.37,-0.084C0.421,-0.084 0.464,-0.095 0.498,-0.118C0.532,-0.141 0.557,-0.174 0.574,-0.215C0.591,-0.257 0.6,-0.305 0.6,-0.36C0.6,-0.415 0.591,-0.463 0.574,-0.504C0.557,-0.545 0.532,-0.578 0.498,-0.601C0.464,-0.624 0.421,-0.635 0.37,-0.636C0.319,-0.636 0.277,-0.625 0.243,-0.602C0.209,-0.579 0.184,-0.547 0.167,-0.505C0.15,-0.463 0.141,-0.415 0.141,-0.36C0.141,-0.305 0.149,-0.257 0.166,-0.216C0.183,-0.175 0.209,-0.143 0.243,-0.12C0.277,-0.097 0.319,-0.085 0.37,-0.084Z" style="fill-rule:nonzero;"/>
                </g>
                <g transform="matrix(545.833,0,0,545.833,3655.38,6948.4)">
                    <path d="M0.08,-0L0.08,-0.72L0.185,-0.72L0.185,-0.099L0.511,-0.099L0.511,-0L0.08,-0Z" style="fill-rule:nonzero;"/>
                </g>
                <g transform="matrix(545.833,0,0,545.833,3942.3,6948.4)">
                    <path d="M0.08,-0L0.08,-0.72L0.185,-0.72L0.185,-0.099L0.511,-0.099L0.511,-0L0.08,-0Z" style="fill-rule:nonzero;"/>
                </g>
                <g transform="matrix(545.833,0,0,545.833,4174.65,6948.4)">
                    <path d="M0.244,-0L0.244,-0.297L0,-0.72L0.122,-0.72L0.297,-0.417L0.471,-0.72L0.593,-0.72L0.35,-0.297L0.35,-0L0.244,-0Z" style="fill-rule:nonzero;"/>
                </g>
                <g transform="matrix(545.833,0,0,545.833,4498.33,6948.4)">
                    <path d="M0.223,-0L0.013,-0.72L0.123,-0.72L0.275,-0.175L0.426,-0.719L0.536,-0.72L0.688,-0.175L0.839,-0.72L0.949,-0.72L0.74,-0L0.636,-0L0.481,-0.538L0.327,-0L0.223,-0Z" style="fill-rule:nonzero;"/>
                </g>
                <g transform="matrix(545.833,0,0,545.833,5012.69,6948.4)">
                    <path d="M0.37,0.015C0.298,0.015 0.237,-0.001 0.186,-0.032C0.136,-0.064 0.097,-0.108 0.07,-0.164C0.043,-0.22 0.03,-0.286 0.03,-0.36C0.03,-0.434 0.043,-0.5 0.07,-0.556C0.097,-0.612 0.136,-0.656 0.186,-0.688C0.237,-0.719 0.298,-0.735 0.37,-0.735C0.442,-0.735 0.504,-0.719 0.554,-0.688C0.605,-0.656 0.644,-0.612 0.671,-0.556C0.697,-0.5 0.711,-0.434 0.711,-0.36C0.711,-0.286 0.697,-0.22 0.671,-0.164C0.644,-0.108 0.605,-0.064 0.554,-0.032C0.504,-0.001 0.442,0.015 0.37,0.015ZM0.37,-0.084C0.421,-0.084 0.464,-0.095 0.498,-0.118C0.532,-0.141 0.557,-0.174 0.574,-0.215C0.591,-0.257 0.6,-0.305 0.6,-0.36C0.6,-0.415 0.591,-0.463 0.574,-0.504C0.557,-0.545 0.532,-0.578 0.498,-0.601C0.464,-0.624 0.421,-0.635 0.37,-0.636C0.319,-0.636 0.277,-0.625 0.243,-0.602C0.209,-0.579 0.184,-0.547 0.167,-0.505C0.15,-0.463 0.141,-0.415 0.141,-0.36C0.141,-0.305 0.149,-0.257 0.166,-0.216C0.183,-0.175 0.209,-0.143 0.243,-0.12C0.277,-0.097 0.319,-0.085 0.37,-0.084Z" style="fill-rule:nonzero;"/>
                </g>
                <g transform="matrix(545.833,0,0,545.833,5416.97,6948.4)">
                    <path d="M0.37,0.015C0.298,0.015 0.237,-0.001 0.186,-0.032C0.136,-0.064 0.097,-0.108 0.07,-0.164C0.043,-0.22 0.03,-0.286 0.03,-0.36C0.03,-0.434 0.043,-0.5 0.07,-0.556C0.097,-0.612 0.136,-0.656 0.186,-0.688C0.237,-0.719 0.298,-0.735 0.37,-0.735C0.442,-0.735 0.504,-0.719 0.554,-0.688C0.605,-0.656 0.644,-0.612 0.671,-0.556C0.697,-0.5 0.711,-0.434 0.711,-0.36C0.711,-0.286 0.697,-0.22 0.671,-0.164C0.644,-0.108 0.605,-0.064 0.554,-0.032C0.504,-0.001 0.442,0.015 0.37,0.015ZM0.37,-0.084C0.421,-0.084 0.464,-0.095 0.498,-0.118C0.532,-0.141 0.557,-0.174 0.574,-0.215C0.591,-0.257 0.6,-0.305 0.6,-0.36C0.6,-0.415 0.591,-0.463 0.574,-0.504C0.557,-0.545 0.532,-0.578 0.498,-0.601C0.464,-0.624 0.421,-0.635 0.37,-0.636C0.319,-0.636 0.277,-0.625 0.243,-0.602C0.209,-0.579 0.184,-0.547 0.167,-0.505C0.15,-0.463 0.141,-0.415 0.141,-0.36C0.141,-0.305 0.149,-0.257 0.166,-0.216C0.183,-0.175 0.209,-0.143 0.243,-0.12C0.277,-0.097 0.319,-0.085 0.37,-0.084Z" style="fill-rule:nonzero;"/>
                </g>
                <g transform="matrix(545.833,0,0,545.833,5821.25,6948.4)">
                    <path d="M0.07,-0L0.07,-0.72L0.296,-0.72C0.302,-0.72 0.315,-0.72 0.333,-0.72C0.351,-0.719 0.368,-0.718 0.385,-0.716C0.441,-0.708 0.489,-0.688 0.527,-0.655C0.566,-0.622 0.595,-0.58 0.615,-0.528C0.634,-0.477 0.644,-0.421 0.644,-0.36C0.644,-0.299 0.634,-0.243 0.615,-0.191C0.595,-0.14 0.566,-0.098 0.527,-0.065C0.489,-0.032 0.441,-0.012 0.385,-0.004C0.368,-0.002 0.351,-0.001 0.333,-0.001C0.314,-0 0.302,-0 0.296,-0L0.07,-0ZM0.177,-0.099L0.296,-0.099C0.307,-0.099 0.32,-0.1 0.336,-0.1C0.352,-0.101 0.365,-0.102 0.377,-0.105C0.414,-0.112 0.444,-0.127 0.467,-0.152C0.489,-0.177 0.506,-0.208 0.517,-0.244C0.528,-0.28 0.533,-0.319 0.533,-0.36C0.533,-0.402 0.528,-0.441 0.517,-0.478C0.506,-0.514 0.489,-0.544 0.466,-0.569C0.443,-0.593 0.413,-0.609 0.377,-0.615C0.365,-0.618 0.352,-0.619 0.336,-0.62C0.32,-0.62 0.307,-0.621 0.296,-0.621L0.177,-0.621L0.177,-0.099Z" style="fill-rule:nonzero;"/>
                </g>
                <g transform="matrix(545.833,0,0,545.833,6198.24,6948.4)">
                </g>
                <g transform="matrix(545.833,0,0,545.833,2863.92,7490.07)">
                    <path d="M0.07,-0L0.07,-0.72L0.175,-0.72L0.175,-0.41L0.535,-0.41L0.535,-0.72L0.639,-0.72L0.639,-0L0.535,-0L0.535,-0.311L0.175,-0.311L0.175,-0L0.07,-0Z" style="fill-rule:nonzero;"/>
                </g>
                <g transform="matrix(545.833,0,0,545.833,3292.58,7490.07)">
                    <path d="M0.02,-0L0.254,-0.72L0.404,-0.72L0.638,-0L0.53,-0L0.314,-0.657L0.342,-0.657L0.128,-0L0.02,-0ZM0.141,-0.162L0.141,-0.26L0.517,-0.26L0.517,-0.162L0.141,-0.162Z" style="fill-rule:nonzero;"/>
                </g>
                <g transform="matrix(545.833,0,0,545.833,3693.4,7490.07)">
                    <path d="M0.07,-0L0.07,-0.72L0.361,-0.72C0.368,-0.72 0.377,-0.72 0.387,-0.719C0.397,-0.719 0.407,-0.718 0.416,-0.716C0.457,-0.71 0.49,-0.696 0.517,-0.675C0.544,-0.654 0.564,-0.628 0.577,-0.596C0.59,-0.564 0.597,-0.528 0.597,-0.489C0.597,-0.432 0.582,-0.383 0.553,-0.341C0.524,-0.3 0.48,-0.274 0.421,-0.264L0.378,-0.259L0.175,-0.259L0.175,-0L0.07,-0ZM0.491,-0L0.349,-0.293L0.454,-0.32L0.61,-0L0.491,-0ZM0.175,-0.357L0.357,-0.357C0.364,-0.357 0.371,-0.358 0.379,-0.358C0.387,-0.359 0.395,-0.36 0.402,-0.362C0.424,-0.367 0.441,-0.376 0.454,-0.39C0.467,-0.403 0.476,-0.419 0.482,-0.436C0.488,-0.454 0.491,-0.472 0.491,-0.489C0.491,-0.507 0.488,-0.525 0.482,-0.542C0.476,-0.56 0.467,-0.575 0.454,-0.589C0.441,-0.602 0.424,-0.612 0.402,-0.617C0.395,-0.619 0.387,-0.62 0.379,-0.62C0.371,-0.621 0.364,-0.621 0.357,-0.621L0.175,-0.621L0.175,-0.357Z" style="fill-rule:nonzero;"/>
                </g>
                <g transform="matrix(545.833,0,0,545.833,4089.86,7490.07)">
                    <path d="M0.07,-0L0.07,-0.72L0.296,-0.72C0.302,-0.72 0.315,-0.72 0.333,-0.72C0.351,-0.719 0.368,-0.718 0.385,-0.716C0.441,-0.708 0.489,-0.688 0.527,-0.655C0.566,-0.622 0.595,-0.58 0.615,-0.528C0.634,-0.477 0.644,-0.421 0.644,-0.36C0.644,-0.299 0.634,-0.243 0.615,-0.191C0.595,-0.14 0.566,-0.098 0.527,-0.065C0.489,-0.032 0.441,-0.012 0.385,-0.004C0.368,-0.002 0.351,-0.001 0.333,-0.001C0.314,-0 0.302,-0 0.296,-0L0.07,-0ZM0.177,-0.099L0.296,-0.099C0.307,-0.099 0.32,-0.1 0.336,-0.1C0.352,-0.101 0.365,-0.102 0.377,-0.105C0.414,-0.112 0.444,-0.127 0.467,-0.152C0.489,-0.177 0.506,-0.208 0.517,-0.244C0.528,-0.28 0.533,-0.319 0.533,-0.36C0.533,-0.402 0.528,-0.441 0.517,-0.478C0.506,-0.514 0.489,-0.544 0.466,-0.569C0.443,-0.593 0.413,-0.609 0.377,-0.615C0.365,-0.618 0.352,-0.619 0.336,-0.62C0.32,-0.62 0.307,-0.621 0.296,-0.621L0.177,-0.621L0.177,-0.099Z" style="fill-rule:nonzero;"/>
                </g>
                <g transform="matrix(545.833,0,0,545.833,4508.33,7490.07)">
                    <path d="M0.223,-0L0.013,-0.72L0.123,-0.72L0.275,-0.175L0.426,-0.719L0.536,-0.72L0.688,-0.175L0.839,-0.72L0.949,-0.72L0.74,-0L0.636,-0L0.481,-0.538L0.327,-0L0.223,-0Z" style="fill-rule:nonzero;"/>
                </g>
                <g transform="matrix(545.833,0,0,545.833,5075.09,7490.07)">
                    <path d="M0.02,-0L0.254,-0.72L0.404,-0.72L0.638,-0L0.53,-0L0.314,-0.657L0.342,-0.657L0.128,-0L0.02,-0ZM0.141,-0.162L0.141,-0.26L0.517,-0.26L0.517,-0.162L0.141,-0.162Z" style="fill-rule:nonzero;"/>
                </g>
                <g transform="matrix(545.833,0,0,545.833,5475.92,7490.07)">
                    <path d="M0.07,-0L0.07,-0.72L0.361,-0.72C0.368,-0.72 0.377,-0.72 0.387,-0.719C0.397,-0.719 0.407,-0.718 0.416,-0.716C0.457,-0.71 0.49,-0.696 0.517,-0.675C0.544,-0.654 0.564,-0.628 0.577,-0.596C0.59,-0.564 0.597,-0.528 0.597,-0.489C0.597,-0.432 0.582,-0.383 0.553,-0.341C0.524,-0.3 0.48,-0.274 0.421,-0.264L0.378,-0.259L0.175,-0.259L0.175,-0L0.07,-0ZM0.491,-0L0.349,-0.293L0.454,-0.32L0.61,-0L0.491,-0ZM0.175,-0.357L0.357,-0.357C0.364,-0.357 0.371,-0.358 0.379,-0.358C0.387,-0.359 0.395,-0.36 0.402,-0.362C0.424,-0.367 0.441,-0.376 0.454,-0.39C0.467,-0.403 0.476,-0.419 0.482,-0.436C0.488,-0.454 0.491,-0.472 0.491,-0.489C0.491,-0.507 0.488,-0.525 0.482,-0.542C0.476,-0.56 0.467,-0.575 0.454,-0.589C0.441,-0.602 0.424,-0.612 0.402,-0.617C0.395,-0.619 0.387,-0.62 0.379,-0.62C0.371,-0.621 0.364,-0.621 0.357,-0.621L0.175,-0.621L0.175,-0.357Z" style="fill-rule:nonzero;"/>
                </g>
                <g transform="matrix(545.833,0,0,545.833,5872.37,7490.07)">
                    <path d="M0.07,-0L0.07,-0.72L0.53,-0.72L0.53,-0.621L0.175,-0.621L0.175,-0.42L0.47,-0.42L0.47,-0.321L0.175,-0.321L0.175,-0.099L0.53,-0.099L0.53,-0L0.07,-0Z" style="fill-rule:nonzero;"/>
                </g>
                <g transform="matrix(545.833,0,0,545.833,6188.96,7490.07)">
                </g>
            </g>
            <g transform="matrix(4.16667,0,0,4.16667,12069.3,3678.7)">
                <path d="M-1.5,-69.563L-1.5,-1.64C-6.545,-6.137 -12.748,-9.355 -19.609,-10.782L-19.609,-54.256C-19.609,-54.295 -19.611,-54.334 -19.614,-54.372L-19.625,-54.521C-19.982,-61.174 -24.535,-66.969 -30.878,-68.994L-30.878,-69.563L-1.5,-69.563Z"/>
            </g>
            <g transform="matrix(4.16667,0,0,4.16667,12069.3,4186.37)">
                <path d="M-1.5,-89.073L-1.5,29.152L-30.788,29.152L-30.788,28.577C-24.916,26.676 -20.511,21.547 -19.665,15.471L-19.63,15.267C-19.616,15.184 -19.609,15.101 -19.609,15.017L-19.609,-84.745C-19.609,-87.276 -20.41,-89.586 -21.757,-91.466C-24.302,-95.016 -28.77,-97.039 -33.444,-96.108L-87.92,-85.322L-87.92,-103.99L-32.874,-114.866C-16.632,-118.071 -1.5,-105.631 -1.5,-89.073Z"/>
            </g>
            <g transform="matrix(4.16667,0,0,4.16667,11418.7,3455.06)">
                <path d="M1.5,188.778C3.887,170.529 4.525,125.998 4.525,94.608C4.525,63.145 3.887,18.322 1.5,0C0.68,-6.292 -3.083,-13.193 -9.794,-15.322L-9.794,-15.887L19.616,-15.887L19.616,204.665L-9.794,204.665L-9.794,204.1C-3.083,201.967 0.677,195.069 1.5,188.778Z"/>
            </g>
            <g transform="matrix(4.16667,0,0,4.16667,11691.2,4037.79)">
                <path d="M-1.5,64.461L-1.5,65.03L-30.891,65.03L-30.891,-1.565C-25.683,3.069 -19.465,6.199 -12.769,7.59L-12.769,49.723C-12.769,49.762 -12.768,49.8 -12.765,49.839L-12.753,49.989C-12.396,56.641 -7.843,62.435 -1.5,64.461Z"/>
            </g>
            <g transform="matrix(4.16667,0,0,4.16667,11928.8,3534.42)">
                <path d="M-1.5,81.097L-1.5,99.752L-56.546,110.628C-72.788,113.833 -87.933,101.405 -87.933,84.835L-87.933,-34.716L-58.632,-34.716L-58.632,-34.142C-64.504,-32.241 -68.91,-27.111 -69.756,-21.035L-69.79,-20.83C-69.804,-20.747 -69.811,-20.664 -69.811,-20.581L-69.811,80.507C-69.811,83.039 -69.009,85.348 -67.662,87.228C-65.118,90.778 -60.65,92.802 -55.976,91.87L-1.5,81.097Z"/>
            </g>
            <g transform="matrix(4.16667,0,0,4.16667,12206.9,4242.55)">
                <path d="M-1.5,-188.778C-3.888,-170.529 -4.532,-126.014 -4.532,-94.608C-4.532,-63.145 -3.888,-18.322 -1.5,0C-0.68,6.292 3.083,13.192 9.794,15.322L9.794,15.887L-19.616,15.887L-19.616,-204.665L9.794,-204.665L9.794,-204.1C3.083,-201.967 -0.677,-195.069 -1.5,-188.778Z"/>
            </g>
        </g>
    </g>
</svg>
