<?xml version="1.0" encoding="UTF-8" standalone="no"?>
<!DOCTYPE svg PUBLIC "-//W3C//DTD SVG 1.1//EN" "http://www.w3.org/Graphics/SVG/1.1/DTD/svg11.dtd">
<svg width="100%" height="100%" viewBox="0 0 4504 929" version="1.1" xmlns="http://www.w3.org/2000/svg" xmlns:xlink="http://www.w3.org/1999/xlink" xml:space="preserve" xmlns:serif="http://www.serif.com/" style="fill-rule:evenodd;clip-rule:evenodd;stroke-linejoin:round;stroke-miterlimit:2;">
    <g transform="matrix(1,0,0,1,-1059.09,-1025.54)">
        <g transform="matrix(1,0,0,1,-10318.8,-2355.04)">
            <g transform="matrix(0.983459,0,0,0.983459,9816.07,-3058.33)">
                <g transform="matrix(545.833,0,0,545.833,2863.92,6948.4)">
                    <path d="M0.07,-0L0.07,-0.72L0.173,-0.72L0.173,-0.409L0.535,-0.409L0.535,-0.72L0.638,-0.72L0.638,-0L0.535,-0L0.535,-0.312L0.173,-0.312L0.173,-0L0.07,-0Z" style="fill:white;fill-rule:nonzero;"/>
                </g>
                <g transform="matrix(545.833,0,0,545.833,3250.42,6948.4)">
                    <path d="M0.37,0.015C0.298,0.015 0.237,-0.001 0.186,-0.032C0.135,-0.064 0.097,-0.108 0.07,-0.164C0.043,-0.221 0.03,-0.286 0.03,-0.36C0.03,-0.434 0.043,-0.499 0.07,-0.556C0.097,-0.612 0.135,-0.656 0.186,-0.688C0.237,-0.719 0.298,-0.735 0.37,-0.735C0.442,-0.735 0.503,-0.719 0.554,-0.688C0.604,-0.656 0.643,-0.612 0.67,-0.556C0.696,-0.499 0.71,-0.434 0.71,-0.36C0.71,-0.286 0.696,-0.221 0.67,-0.164C0.643,-0.108 0.604,-0.064 0.554,-0.032C0.503,-0.001 0.442,0.015 0.37,0.015ZM0.37,-0.083C0.421,-0.082 0.464,-0.094 0.498,-0.117C0.532,-0.14 0.558,-0.173 0.575,-0.214C0.592,-0.256 0.6,-0.305 0.6,-0.36C0.6,-0.415 0.592,-0.464 0.575,-0.505C0.558,-0.546 0.532,-0.579 0.498,-0.602C0.464,-0.625 0.421,-0.637 0.37,-0.637C0.319,-0.638 0.276,-0.626 0.242,-0.603C0.208,-0.58 0.182,-0.547 0.165,-0.506C0.148,-0.464 0.14,-0.415 0.139,-0.36C0.139,-0.305 0.148,-0.256 0.165,-0.215C0.182,-0.174 0.207,-0.142 0.242,-0.118C0.276,-0.095 0.319,-0.083 0.37,-0.083Z" style="fill:white;fill-rule:nonzero;"/>
                </g>
                <g transform="matrix(545.833,0,0,545.833,3654.23,6948.4)">
                    <path d="M0.08,-0L0.08,-0.72L0.183,-0.72L0.183,-0.097L0.51,-0.097L0.51,-0L0.08,-0Z" style="fill:white;fill-rule:nonzero;"/>
                </g>
                <g transform="matrix(545.833,0,0,545.833,3940.74,6948.4)">
                    <path d="M0.08,-0L0.08,-0.72L0.183,-0.72L0.183,-0.097L0.51,-0.097L0.51,-0L0.08,-0Z" style="fill:white;fill-rule:nonzero;"/>
                </g>
                <g transform="matrix(545.833,0,0,545.833,4172.66,6948.4)">
                    <path d="M0.244,-0L0.244,-0.298L0,-0.72L0.12,-0.72L0.296,-0.416L0.471,-0.72L0.591,-0.72L0.348,-0.298L0.348,-0L0.244,-0Z" style="fill:white;fill-rule:nonzero;"/>
                </g>
                <g transform="matrix(545.833,0,0,545.833,4495.34,6948.4)">
                    <path d="M0.223,-0L0.014,-0.72L0.122,-0.72L0.274,-0.173L0.426,-0.719L0.535,-0.72L0.687,-0.173L0.839,-0.72L0.948,-0.72L0.738,-0L0.636,-0L0.48,-0.541L0.325,-0L0.223,-0Z" style="fill:white;fill-rule:nonzero;"/>
                </g>
                <g transform="matrix(545.833,0,0,545.833,5008.97,6948.4)">
                    <path d="M0.37,0.015C0.298,0.015 0.237,-0.001 0.186,-0.032C0.135,-0.064 0.097,-0.108 0.07,-0.164C0.043,-0.221 0.03,-0.286 0.03,-0.36C0.03,-0.434 0.043,-0.499 0.07,-0.556C0.097,-0.612 0.135,-0.656 0.186,-0.688C0.237,-0.719 0.298,-0.735 0.37,-0.735C0.442,-0.735 0.503,-0.719 0.554,-0.688C0.604,-0.656 0.643,-0.612 0.67,-0.556C0.696,-0.499 0.71,-0.434 0.71,-0.36C0.71,-0.286 0.696,-0.221 0.67,-0.164C0.643,-0.108 0.604,-0.064 0.554,-0.032C0.503,-0.001 0.442,0.015 0.37,0.015ZM0.37,-0.083C0.421,-0.082 0.464,-0.094 0.498,-0.117C0.532,-0.14 0.558,-0.173 0.575,-0.214C0.592,-0.256 0.6,-0.305 0.6,-0.36C0.6,-0.415 0.592,-0.464 0.575,-0.505C0.558,-0.546 0.532,-0.579 0.498,-0.602C0.464,-0.625 0.421,-0.637 0.37,-0.637C0.319,-0.638 0.276,-0.626 0.242,-0.603C0.208,-0.58 0.182,-0.547 0.165,-0.506C0.148,-0.464 0.14,-0.415 0.139,-0.36C0.139,-0.305 0.148,-0.256 0.165,-0.215C0.182,-0.174 0.207,-0.142 0.242,-0.118C0.276,-0.095 0.319,-0.083 0.37,-0.083Z" style="fill:white;fill-rule:nonzero;"/>
                </g>
                <g transform="matrix(545.833,0,0,545.833,5412.77,6948.4)">
                    <path d="M0.37,0.015C0.298,0.015 0.237,-0.001 0.186,-0.032C0.135,-0.064 0.097,-0.108 0.07,-0.164C0.043,-0.221 0.03,-0.286 0.03,-0.36C0.03,-0.434 0.043,-0.499 0.07,-0.556C0.097,-0.612 0.135,-0.656 0.186,-0.688C0.237,-0.719 0.298,-0.735 0.37,-0.735C0.442,-0.735 0.503,-0.719 0.554,-0.688C0.604,-0.656 0.643,-0.612 0.67,-0.556C0.696,-0.499 0.71,-0.434 0.71,-0.36C0.71,-0.286 0.696,-0.221 0.67,-0.164C0.643,-0.108 0.604,-0.064 0.554,-0.032C0.503,-0.001 0.442,0.015 0.37,0.015ZM0.37,-0.083C0.421,-0.082 0.464,-0.094 0.498,-0.117C0.532,-0.14 0.558,-0.173 0.575,-0.214C0.592,-0.256 0.6,-0.305 0.6,-0.36C0.6,-0.415 0.592,-0.464 0.575,-0.505C0.558,-0.546 0.532,-0.579 0.498,-0.602C0.464,-0.625 0.421,-0.637 0.37,-0.637C0.319,-0.638 0.276,-0.626 0.242,-0.603C0.208,-0.58 0.182,-0.547 0.165,-0.506C0.148,-0.464 0.14,-0.415 0.139,-0.36C0.139,-0.305 0.148,-0.256 0.165,-0.215C0.182,-0.174 0.207,-0.142 0.242,-0.118C0.276,-0.095 0.319,-0.083 0.37,-0.083Z" style="fill:white;fill-rule:nonzero;"/>
                </g>
                <g transform="matrix(545.833,0,0,545.833,5816.58,6948.4)">
                    <path d="M0.07,-0L0.07,-0.72L0.295,-0.72C0.302,-0.72 0.314,-0.72 0.333,-0.72C0.351,-0.719 0.368,-0.718 0.385,-0.716C0.441,-0.708 0.488,-0.688 0.527,-0.655C0.565,-0.622 0.594,-0.58 0.614,-0.528C0.633,-0.477 0.643,-0.421 0.643,-0.36C0.643,-0.299 0.633,-0.243 0.614,-0.191C0.594,-0.14 0.565,-0.098 0.527,-0.065C0.488,-0.032 0.441,-0.012 0.385,-0.004C0.368,-0.002 0.351,-0.001 0.332,-0.001C0.314,-0 0.302,-0 0.295,-0L0.07,-0ZM0.175,-0.098L0.295,-0.098C0.307,-0.098 0.32,-0.098 0.336,-0.099C0.352,-0.1 0.365,-0.101 0.377,-0.103C0.414,-0.11 0.444,-0.126 0.467,-0.151C0.49,-0.176 0.507,-0.207 0.518,-0.243C0.528,-0.28 0.534,-0.319 0.534,-0.36C0.534,-0.403 0.528,-0.442 0.517,-0.479C0.506,-0.515 0.489,-0.545 0.466,-0.57C0.443,-0.594 0.413,-0.61 0.377,-0.617C0.365,-0.619 0.351,-0.621 0.336,-0.621C0.32,-0.622 0.306,-0.622 0.295,-0.622L0.175,-0.622L0.175,-0.098Z" style="fill:white;fill-rule:nonzero;"/>
                </g>
                <g transform="matrix(545.833,0,0,545.833,6193.04,6948.4)">
                </g>
                <g transform="matrix(545.833,0,0,545.833,2863.92,7490.07)">
                    <path d="M0.07,-0L0.07,-0.72L0.173,-0.72L0.173,-0.409L0.535,-0.409L0.535,-0.72L0.638,-0.72L0.638,-0L0.535,-0L0.535,-0.312L0.173,-0.312L0.173,-0L0.07,-0Z" style="fill:white;fill-rule:nonzero;"/>
                </g>
                <g transform="matrix(545.833,0,0,545.833,3291.91,7490.07)">
                    <path d="M0.02,-0L0.255,-0.72L0.402,-0.72L0.637,-0L0.53,-0L0.314,-0.658L0.341,-0.658L0.127,-0L0.02,-0ZM0.141,-0.163L0.141,-0.26L0.517,-0.26L0.517,-0.163L0.141,-0.163Z" style="fill:white;fill-rule:nonzero;"/>
                </g>
                <g transform="matrix(545.833,0,0,545.833,3692.06,7490.07)">
                    <path d="M0.07,-0L0.07,-0.72L0.36,-0.72C0.367,-0.72 0.376,-0.72 0.386,-0.719C0.396,-0.719 0.406,-0.718 0.415,-0.716C0.456,-0.71 0.489,-0.696 0.516,-0.675C0.543,-0.654 0.563,-0.628 0.576,-0.596C0.589,-0.564 0.596,-0.529 0.596,-0.49C0.596,-0.433 0.581,-0.383 0.552,-0.342C0.523,-0.3 0.479,-0.275 0.42,-0.264L0.379,-0.259L0.173,-0.259L0.173,-0L0.07,-0ZM0.492,-0L0.35,-0.293L0.453,-0.32L0.609,-0L0.492,-0ZM0.173,-0.357L0.356,-0.357C0.363,-0.357 0.37,-0.357 0.378,-0.358C0.387,-0.358 0.394,-0.36 0.402,-0.361C0.423,-0.366 0.441,-0.376 0.454,-0.389C0.467,-0.403 0.476,-0.418 0.482,-0.436C0.488,-0.454 0.491,-0.472 0.491,-0.49C0.491,-0.508 0.488,-0.525 0.482,-0.543C0.476,-0.561 0.467,-0.577 0.454,-0.59C0.441,-0.604 0.423,-0.613 0.402,-0.618C0.394,-0.62 0.387,-0.621 0.378,-0.622C0.37,-0.622 0.363,-0.623 0.356,-0.623L0.173,-0.623L0.173,-0.357Z" style="fill:white;fill-rule:nonzero;"/>
                </g>
                <g transform="matrix(545.833,0,0,545.833,4087.98,7490.07)">
                    <path d="M0.07,-0L0.07,-0.72L0.295,-0.72C0.302,-0.72 0.314,-0.72 0.333,-0.72C0.351,-0.719 0.368,-0.718 0.385,-0.716C0.441,-0.708 0.488,-0.688 0.527,-0.655C0.565,-0.622 0.594,-0.58 0.614,-0.528C0.633,-0.477 0.643,-0.421 0.643,-0.36C0.643,-0.299 0.633,-0.243 0.614,-0.191C0.594,-0.14 0.565,-0.098 0.527,-0.065C0.488,-0.032 0.441,-0.012 0.385,-0.004C0.368,-0.002 0.351,-0.001 0.332,-0.001C0.314,-0 0.302,-0 0.295,-0L0.07,-0ZM0.175,-0.098L0.295,-0.098C0.307,-0.098 0.32,-0.098 0.336,-0.099C0.352,-0.1 0.365,-0.101 0.377,-0.103C0.414,-0.11 0.444,-0.126 0.467,-0.151C0.49,-0.176 0.507,-0.207 0.518,-0.243C0.528,-0.28 0.534,-0.319 0.534,-0.36C0.534,-0.403 0.528,-0.442 0.517,-0.479C0.506,-0.515 0.489,-0.545 0.466,-0.57C0.443,-0.594 0.413,-0.61 0.377,-0.617C0.365,-0.619 0.351,-0.621 0.336,-0.621C0.32,-0.622 0.306,-0.622 0.295,-0.622L0.175,-0.622L0.175,-0.098Z" style="fill:white;fill-rule:nonzero;"/>
                </g>
                <g transform="matrix(545.833,0,0,545.833,4505.92,7490.07)">
                    <path d="M0.223,-0L0.014,-0.72L0.122,-0.72L0.274,-0.173L0.426,-0.719L0.535,-0.72L0.687,-0.173L0.839,-0.72L0.948,-0.72L0.738,-0L0.636,-0L0.48,-0.541L0.325,-0L0.223,-0Z" style="fill:white;fill-rule:nonzero;"/>
                </g>
                <g transform="matrix(545.833,0,0,545.833,5071.95,7490.07)">
                    <path d="M0.02,-0L0.255,-0.72L0.402,-0.72L0.637,-0L0.53,-0L0.314,-0.658L0.341,-0.658L0.127,-0L0.02,-0ZM0.141,-0.163L0.141,-0.26L0.517,-0.26L0.517,-0.163L0.141,-0.163Z" style="fill:white;fill-rule:nonzero;"/>
                </g>
                <g transform="matrix(545.833,0,0,545.833,5472.11,7490.07)">
                    <path d="M0.07,-0L0.07,-0.72L0.36,-0.72C0.367,-0.72 0.376,-0.72 0.386,-0.719C0.396,-0.719 0.406,-0.718 0.415,-0.716C0.456,-0.71 0.489,-0.696 0.516,-0.675C0.543,-0.654 0.563,-0.628 0.576,-0.596C0.589,-0.564 0.596,-0.529 0.596,-0.49C0.596,-0.433 0.581,-0.383 0.552,-0.342C0.523,-0.3 0.479,-0.275 0.42,-0.264L0.379,-0.259L0.173,-0.259L0.173,-0L0.07,-0ZM0.492,-0L0.35,-0.293L0.453,-0.32L0.609,-0L0.492,-0ZM0.173,-0.357L0.356,-0.357C0.363,-0.357 0.37,-0.357 0.378,-0.358C0.387,-0.358 0.394,-0.36 0.402,-0.361C0.423,-0.366 0.441,-0.376 0.454,-0.389C0.467,-0.403 0.476,-0.418 0.482,-0.436C0.488,-0.454 0.491,-0.472 0.491,-0.49C0.491,-0.508 0.488,-0.525 0.482,-0.543C0.476,-0.561 0.467,-0.577 0.454,-0.59C0.441,-0.604 0.423,-0.613 0.402,-0.618C0.394,-0.62 0.387,-0.621 0.378,-0.622C0.37,-0.622 0.363,-0.623 0.356,-0.623L0.173,-0.623L0.173,-0.357Z" style="fill:white;fill-rule:nonzero;"/>
                </g>
                <g transform="matrix(545.833,0,0,545.833,5868.03,7490.07)">
                    <path d="M0.07,-0L0.07,-0.72L0.53,-0.72L0.53,-0.623L0.173,-0.623L0.173,-0.419L0.47,-0.419L0.47,-0.321L0.173,-0.321L0.173,-0.097L0.53,-0.097L0.53,-0L0.07,-0Z" style="fill:white;fill-rule:nonzero;"/>
                </g>
                <g transform="matrix(545.833,0,0,545.833,6184.34,7490.07)">
                </g>
            </g>
            <g transform="matrix(4.16667,0,0,4.16667,12069.3,3678.7)">
                <path d="M-1.5,-69.563L-1.5,-1.64C-6.545,-6.137 -12.748,-9.355 -19.609,-10.782L-19.609,-54.256C-19.609,-54.295 -19.611,-54.334 -19.614,-54.372L-19.625,-54.521C-19.982,-61.174 -24.535,-66.969 -30.878,-68.994L-30.878,-69.563L-1.5,-69.563Z" style="fill:white;"/>
            </g>
            <g transform="matrix(4.16667,0,0,4.16667,12069.3,4186.37)">
                <path d="M-1.5,-89.073L-1.5,29.152L-30.788,29.152L-30.788,28.577C-24.916,26.676 -20.511,21.547 -19.665,15.471L-19.63,15.267C-19.616,15.184 -19.609,15.101 -19.609,15.017L-19.609,-84.745C-19.609,-87.276 -20.41,-89.586 -21.757,-91.466C-24.302,-95.016 -28.77,-97.039 -33.444,-96.108L-87.92,-85.322L-87.92,-103.99L-32.874,-114.866C-16.632,-118.071 -1.5,-105.631 -1.5,-89.073Z" style="fill:white;"/>
            </g>
            <g transform="matrix(4.16667,0,0,4.16667,11418.7,3455.06)">
                <path d="M1.5,188.778C3.887,170.529 4.525,125.998 4.525,94.608C4.525,63.145 3.887,18.322 1.5,0C0.68,-6.292 -3.083,-13.193 -9.794,-15.322L-9.794,-15.887L19.616,-15.887L19.616,204.665L-9.794,204.665L-9.794,204.1C-3.083,201.967 0.677,195.069 1.5,188.778Z" style="fill:white;"/>
            </g>
            <g transform="matrix(4.16667,0,0,4.16667,11691.2,4037.79)">
                <path d="M-1.5,64.461L-1.5,65.03L-30.891,65.03L-30.891,-1.565C-25.683,3.069 -19.465,6.199 -12.769,7.59L-12.769,49.723C-12.769,49.762 -12.768,49.8 -12.765,49.839L-12.753,49.989C-12.396,56.641 -7.843,62.435 -1.5,64.461Z" style="fill:white;"/>
            </g>
            <g transform="matrix(4.16667,0,0,4.16667,11928.8,3534.42)">
                <path d="M-1.5,81.097L-1.5,99.752L-56.546,110.628C-72.788,113.833 -87.933,101.405 -87.933,84.835L-87.933,-34.716L-58.632,-34.716L-58.632,-34.142C-64.504,-32.241 -68.91,-27.111 -69.756,-21.035L-69.79,-20.83C-69.804,-20.747 -69.811,-20.664 -69.811,-20.581L-69.811,80.507C-69.811,83.039 -69.009,85.348 -67.662,87.228C-65.118,90.778 -60.65,92.802 -55.976,91.87L-1.5,81.097Z" style="fill:white;"/>
            </g>
            <g transform="matrix(4.16667,0,0,4.16667,12206.9,4242.55)">
                <path d="M-1.5,-188.778C-3.888,-170.529 -4.532,-126.014 -4.532,-94.608C-4.532,-63.145 -3.888,-18.322 -1.5,0C-0.68,6.292 3.083,13.192 9.794,15.322L9.794,15.887L-19.616,15.887L-19.616,-204.665L9.794,-204.665L9.794,-204.1C3.083,-201.967 -0.677,-195.069 -1.5,-188.778Z" style="fill:white;"/>
            </g>
        </g>
    </g>
</svg>
