<?xml version="1.0" encoding="UTF-8" standalone="no"?>
<!DOCTYPE svg PUBLIC "-//W3C//DTD SVG 1.1//EN" "http://www.w3.org/Graphics/SVG/1.1/DTD/svg11.dtd">
<svg width="100%" height="100%" viewBox="0 0 4628 929" version="1.1" xmlns="http://www.w3.org/2000/svg" xmlns:xlink="http://www.w3.org/1999/xlink" xml:space="preserve" xmlns:serif="http://www.serif.com/" style="fill-rule:evenodd;clip-rule:evenodd;stroke-linejoin:round;stroke-miterlimit:2;">
    <g transform="matrix(1,0,0,1,-1059.09,-1025.59)">
        <g id="Page-1" serif:id="Page 1" transform="matrix(1,0,0,1,-10318.8,-2355.04)">
            <rect x="10318.8" y="2355.04" width="6787.78" height="2977.39" style="fill:none;"/>
            <g>
                <g transform="matrix(0.983459,0,0,0.983459,9740.2,-3058.28)">
                    <g transform="matrix(545.833,0,0,545.833,2863.92,6948.4)">
                        <path d="M0.07,-0L0.07,-0.72L0.178,-0.72L0.178,-0.411L0.534,-0.411L0.534,-0.72L0.642,-0.72L0.642,-0L0.534,-0L0.534,-0.31L0.178,-0.31L0.178,-0L0.07,-0Z" style="fill-rule:nonzero;"/>
                    </g>
                    <g transform="matrix(545.833,0,0,545.833,3275.91,6948.4)">
                        <path d="M0.371,0.015C0.299,0.015 0.238,-0.001 0.187,-0.032C0.136,-0.064 0.097,-0.108 0.07,-0.164C0.043,-0.22 0.03,-0.286 0.03,-0.36C0.03,-0.434 0.043,-0.5 0.07,-0.556C0.097,-0.612 0.136,-0.656 0.187,-0.688C0.238,-0.719 0.299,-0.735 0.371,-0.735C0.443,-0.735 0.504,-0.719 0.555,-0.688C0.606,-0.656 0.645,-0.612 0.672,-0.556C0.699,-0.5 0.712,-0.434 0.712,-0.36C0.712,-0.286 0.699,-0.22 0.672,-0.164C0.645,-0.108 0.606,-0.064 0.555,-0.032C0.504,-0.001 0.443,0.015 0.371,0.015ZM0.371,-0.087C0.422,-0.087 0.464,-0.098 0.497,-0.121C0.531,-0.143 0.556,-0.175 0.573,-0.217C0.59,-0.258 0.598,-0.306 0.598,-0.36C0.598,-0.415 0.59,-0.462 0.573,-0.503C0.556,-0.544 0.531,-0.575 0.497,-0.598C0.464,-0.621 0.422,-0.632 0.371,-0.633C0.321,-0.633 0.279,-0.622 0.245,-0.599C0.212,-0.577 0.187,-0.545 0.17,-0.504C0.153,-0.462 0.145,-0.415 0.144,-0.36C0.144,-0.306 0.152,-0.258 0.169,-0.217C0.186,-0.177 0.211,-0.145 0.245,-0.122C0.279,-0.099 0.321,-0.088 0.371,-0.087Z" style="fill-rule:nonzero;"/>
                    </g>
                    <g transform="matrix(545.833,0,0,545.833,3704.61,6948.4)">
                        <path d="M0.08,-0L0.08,-0.72L0.188,-0.72L0.188,-0.102L0.512,-0.102L0.512,-0L0.08,-0Z" style="fill-rule:nonzero;"/>
                    </g>
                    <g transform="matrix(545.833,0,0,545.833,4015.84,6948.4)">
                        <path d="M0.08,-0L0.08,-0.72L0.188,-0.72L0.188,-0.102L0.512,-0.102L0.512,-0L0.08,-0Z" style="fill-rule:nonzero;"/>
                    </g>
                    <g transform="matrix(545.833,0,0,545.833,4272.5,6948.4)">
                        <path d="M0.244,-0L0.244,-0.297L0,-0.72L0.126,-0.72L0.299,-0.421L0.471,-0.72L0.597,-0.72L0.353,-0.297L0.353,-0L0.244,-0Z" style="fill-rule:nonzero;"/>
                    </g>
                    <g transform="matrix(545.833,0,0,545.833,4621.67,6948.4)">
                        <path d="M0.223,-0L0.013,-0.72L0.126,-0.72L0.276,-0.18L0.426,-0.719L0.539,-0.72L0.689,-0.18L0.839,-0.72L0.952,-0.72L0.743,-0L0.636,-0L0.482,-0.533L0.33,-0L0.223,-0Z" style="fill-rule:nonzero;"/>
                    </g>
                    <g transform="matrix(545.833,0,0,545.833,5160.95,6948.4)">
                        <path d="M0.371,0.015C0.299,0.015 0.238,-0.001 0.187,-0.032C0.136,-0.064 0.097,-0.108 0.07,-0.164C0.043,-0.22 0.03,-0.286 0.03,-0.36C0.03,-0.434 0.043,-0.5 0.07,-0.556C0.097,-0.612 0.136,-0.656 0.187,-0.688C0.238,-0.719 0.299,-0.735 0.371,-0.735C0.443,-0.735 0.504,-0.719 0.555,-0.688C0.606,-0.656 0.645,-0.612 0.672,-0.556C0.699,-0.5 0.712,-0.434 0.712,-0.36C0.712,-0.286 0.699,-0.22 0.672,-0.164C0.645,-0.108 0.606,-0.064 0.555,-0.032C0.504,-0.001 0.443,0.015 0.371,0.015ZM0.371,-0.087C0.422,-0.087 0.464,-0.098 0.497,-0.121C0.531,-0.143 0.556,-0.175 0.573,-0.217C0.59,-0.258 0.598,-0.306 0.598,-0.36C0.598,-0.415 0.59,-0.462 0.573,-0.503C0.556,-0.544 0.531,-0.575 0.497,-0.598C0.464,-0.621 0.422,-0.632 0.371,-0.633C0.321,-0.633 0.279,-0.622 0.245,-0.599C0.212,-0.577 0.187,-0.545 0.17,-0.504C0.153,-0.462 0.145,-0.415 0.144,-0.36C0.144,-0.306 0.152,-0.258 0.169,-0.217C0.186,-0.177 0.211,-0.145 0.245,-0.122C0.279,-0.099 0.321,-0.088 0.371,-0.087Z" style="fill-rule:nonzero;"/>
                    </g>
                    <g transform="matrix(545.833,0,0,545.833,5589.65,6948.4)">
                        <path d="M0.371,0.015C0.299,0.015 0.238,-0.001 0.187,-0.032C0.136,-0.064 0.097,-0.108 0.07,-0.164C0.043,-0.22 0.03,-0.286 0.03,-0.36C0.03,-0.434 0.043,-0.5 0.07,-0.556C0.097,-0.612 0.136,-0.656 0.187,-0.688C0.238,-0.719 0.299,-0.735 0.371,-0.735C0.443,-0.735 0.504,-0.719 0.555,-0.688C0.606,-0.656 0.645,-0.612 0.672,-0.556C0.699,-0.5 0.712,-0.434 0.712,-0.36C0.712,-0.286 0.699,-0.22 0.672,-0.164C0.645,-0.108 0.606,-0.064 0.555,-0.032C0.504,-0.001 0.443,0.015 0.371,0.015ZM0.371,-0.087C0.422,-0.087 0.464,-0.098 0.497,-0.121C0.531,-0.143 0.556,-0.175 0.573,-0.217C0.59,-0.258 0.598,-0.306 0.598,-0.36C0.598,-0.415 0.59,-0.462 0.573,-0.503C0.556,-0.544 0.531,-0.575 0.497,-0.598C0.464,-0.621 0.422,-0.632 0.371,-0.633C0.321,-0.633 0.279,-0.622 0.245,-0.599C0.212,-0.577 0.187,-0.545 0.17,-0.504C0.153,-0.462 0.145,-0.415 0.144,-0.36C0.144,-0.306 0.152,-0.258 0.169,-0.217C0.186,-0.177 0.211,-0.145 0.245,-0.122C0.279,-0.099 0.321,-0.088 0.371,-0.087Z" style="fill-rule:nonzero;"/>
                    </g>
                    <g transform="matrix(545.833,0,0,545.833,6018.35,6948.4)">
                        <path d="M0.07,-0L0.07,-0.72L0.296,-0.72C0.303,-0.72 0.315,-0.72 0.333,-0.72C0.351,-0.719 0.369,-0.718 0.385,-0.716C0.442,-0.709 0.489,-0.688 0.528,-0.655C0.567,-0.622 0.596,-0.58 0.616,-0.528C0.636,-0.477 0.646,-0.421 0.646,-0.36C0.646,-0.299 0.636,-0.243 0.616,-0.191C0.596,-0.14 0.567,-0.098 0.528,-0.065C0.489,-0.032 0.442,-0.012 0.385,-0.004C0.369,-0.002 0.351,-0.001 0.333,-0.001C0.315,-0 0.303,-0 0.296,-0L0.07,-0ZM0.18,-0.102L0.296,-0.102C0.307,-0.102 0.321,-0.103 0.336,-0.103C0.352,-0.104 0.366,-0.105 0.378,-0.108C0.414,-0.114 0.443,-0.13 0.466,-0.155C0.488,-0.179 0.505,-0.21 0.515,-0.246C0.526,-0.281 0.531,-0.32 0.531,-0.36C0.531,-0.402 0.526,-0.44 0.515,-0.476C0.504,-0.512 0.487,-0.542 0.465,-0.566C0.442,-0.591 0.413,-0.606 0.378,-0.613C0.366,-0.615 0.352,-0.616 0.336,-0.617C0.32,-0.618 0.307,-0.618 0.296,-0.618L0.18,-0.618L0.18,-0.102Z" style="fill-rule:nonzero;"/>
                    </g>
                    <g transform="matrix(545.833,0,0,545.833,6396.39,6948.4)">
                    </g>
                    <g transform="matrix(545.833,0,0,545.833,2863.92,7490.07)">
                        <path d="M0.07,-0L0.07,-0.72L0.178,-0.72L0.178,-0.411L0.534,-0.411L0.534,-0.72L0.642,-0.72L0.642,-0L0.534,-0L0.534,-0.31L0.178,-0.31L0.178,-0L0.07,-0Z" style="fill-rule:nonzero;"/>
                    </g>
                    <g transform="matrix(545.833,0,0,545.833,3318.49,7490.07)">
                        <path d="M0.02,-0L0.253,-0.72L0.408,-0.72L0.641,-0L0.529,-0L0.316,-0.655L0.343,-0.655L0.132,-0L0.02,-0ZM0.142,-0.161L0.142,-0.262L0.519,-0.262L0.519,-0.161L0.142,-0.161Z" style="fill-rule:nonzero;"/>
                    </g>
                    <g transform="matrix(545.833,0,0,545.833,3745.22,7490.07)">
                        <path d="M0.07,-0L0.07,-0.72L0.362,-0.72C0.369,-0.72 0.378,-0.72 0.389,-0.719C0.399,-0.719 0.409,-0.718 0.418,-0.716C0.459,-0.71 0.492,-0.696 0.519,-0.675C0.546,-0.654 0.566,-0.627 0.579,-0.595C0.593,-0.563 0.599,-0.528 0.599,-0.489C0.599,-0.431 0.585,-0.381 0.555,-0.34C0.526,-0.298 0.482,-0.272 0.422,-0.262L0.378,-0.257L0.178,-0.257L0.178,-0L0.07,-0ZM0.49,-0L0.348,-0.293L0.456,-0.32L0.612,-0L0.49,-0ZM0.178,-0.359L0.358,-0.359C0.365,-0.359 0.372,-0.359 0.38,-0.36C0.388,-0.36 0.396,-0.362 0.404,-0.363C0.425,-0.368 0.442,-0.378 0.454,-0.391C0.467,-0.404 0.476,-0.42 0.482,-0.437C0.487,-0.454 0.49,-0.471 0.49,-0.489C0.49,-0.506 0.487,-0.523 0.482,-0.54C0.476,-0.558 0.467,-0.573 0.454,-0.586C0.442,-0.6 0.425,-0.609 0.404,-0.614C0.396,-0.616 0.388,-0.617 0.38,-0.618C0.372,-0.618 0.365,-0.619 0.358,-0.619L0.178,-0.619L0.178,-0.359Z" style="fill-rule:nonzero;"/>
                    </g>
                    <g transform="matrix(545.833,0,0,545.833,4167.31,7490.07)">
                        <path d="M0.07,-0L0.07,-0.72L0.296,-0.72C0.303,-0.72 0.315,-0.72 0.333,-0.72C0.351,-0.719 0.369,-0.718 0.385,-0.716C0.442,-0.709 0.489,-0.688 0.528,-0.655C0.567,-0.622 0.596,-0.58 0.616,-0.528C0.636,-0.477 0.646,-0.421 0.646,-0.36C0.646,-0.299 0.636,-0.243 0.616,-0.191C0.596,-0.14 0.567,-0.098 0.528,-0.065C0.489,-0.032 0.442,-0.012 0.385,-0.004C0.369,-0.002 0.351,-0.001 0.333,-0.001C0.315,-0 0.303,-0 0.296,-0L0.07,-0ZM0.18,-0.102L0.296,-0.102C0.307,-0.102 0.321,-0.103 0.336,-0.103C0.352,-0.104 0.366,-0.105 0.378,-0.108C0.414,-0.114 0.443,-0.13 0.466,-0.155C0.488,-0.179 0.505,-0.21 0.515,-0.246C0.526,-0.281 0.531,-0.32 0.531,-0.36C0.531,-0.402 0.526,-0.44 0.515,-0.476C0.504,-0.512 0.487,-0.542 0.465,-0.566C0.442,-0.591 0.413,-0.606 0.378,-0.613C0.366,-0.615 0.352,-0.616 0.336,-0.617C0.32,-0.618 0.307,-0.618 0.296,-0.618L0.18,-0.618L0.18,-0.102Z" style="fill-rule:nonzero;"/>
                    </g>
                    <g transform="matrix(545.833,0,0,545.833,4611.4,7490.07)">
                        <path d="M0.223,-0L0.013,-0.72L0.126,-0.72L0.276,-0.18L0.426,-0.719L0.539,-0.72L0.689,-0.18L0.839,-0.72L0.952,-0.72L0.743,-0L0.636,-0L0.482,-0.533L0.33,-0L0.223,-0Z" style="fill-rule:nonzero;"/>
                    </g>
                    <g transform="matrix(545.833,0,0,545.833,5204.18,7490.07)">
                        <path d="M0.02,-0L0.253,-0.72L0.408,-0.72L0.641,-0L0.529,-0L0.316,-0.655L0.343,-0.655L0.132,-0L0.02,-0ZM0.142,-0.161L0.142,-0.262L0.519,-0.262L0.519,-0.161L0.142,-0.161Z" style="fill-rule:nonzero;"/>
                    </g>
                    <g transform="matrix(545.833,0,0,545.833,5630.91,7490.07)">
                        <path d="M0.07,-0L0.07,-0.72L0.362,-0.72C0.369,-0.72 0.378,-0.72 0.389,-0.719C0.399,-0.719 0.409,-0.718 0.418,-0.716C0.459,-0.71 0.492,-0.696 0.519,-0.675C0.546,-0.654 0.566,-0.627 0.579,-0.595C0.593,-0.563 0.599,-0.528 0.599,-0.489C0.599,-0.431 0.585,-0.381 0.555,-0.34C0.526,-0.298 0.482,-0.272 0.422,-0.262L0.378,-0.257L0.178,-0.257L0.178,-0L0.07,-0ZM0.49,-0L0.348,-0.293L0.456,-0.32L0.612,-0L0.49,-0ZM0.178,-0.359L0.358,-0.359C0.365,-0.359 0.372,-0.359 0.38,-0.36C0.388,-0.36 0.396,-0.362 0.404,-0.363C0.425,-0.368 0.442,-0.378 0.454,-0.391C0.467,-0.404 0.476,-0.42 0.482,-0.437C0.487,-0.454 0.49,-0.471 0.49,-0.489C0.49,-0.506 0.487,-0.523 0.482,-0.54C0.476,-0.558 0.467,-0.573 0.454,-0.586C0.442,-0.6 0.425,-0.609 0.404,-0.614C0.396,-0.616 0.388,-0.617 0.38,-0.618C0.372,-0.618 0.365,-0.619 0.358,-0.619L0.178,-0.619L0.178,-0.359Z" style="fill-rule:nonzero;"/>
                    </g>
                    <g transform="matrix(545.833,0,0,545.833,6053.01,7490.07)">
                        <path d="M0.07,-0L0.07,-0.72L0.531,-0.72L0.531,-0.619L0.178,-0.619L0.178,-0.422L0.471,-0.422L0.471,-0.32L0.178,-0.32L0.178,-0.102L0.531,-0.102L0.531,-0L0.07,-0Z" style="fill-rule:nonzero;"/>
                    </g>
                    <g transform="matrix(545.833,0,0,545.833,6370.14,7490.07)">
                    </g>
                </g>
                <g transform="matrix(4.16667,0,0,4.16667,9648.47,-319.392)">
                    <g transform="matrix(1,0,0,1,581.001,959.543)">
                        <path d="M-1.5,-69.563L-1.5,-1.64C-6.545,-6.137 -12.748,-9.355 -19.609,-10.782L-19.609,-54.256C-19.609,-54.295 -19.611,-54.334 -19.614,-54.372L-19.625,-54.521C-19.982,-61.174 -24.535,-66.969 -30.878,-68.994L-30.878,-69.563L-1.5,-69.563Z"/>
                    </g>
                    <g transform="matrix(1,0,0,1,581.001,1081.38)">
                        <path d="M-1.5,-89.073L-1.5,29.152L-30.788,29.152L-30.788,28.577C-24.916,26.676 -20.511,21.547 -19.665,15.471L-19.63,15.267C-19.616,15.184 -19.609,15.101 -19.609,15.017L-19.609,-84.745C-19.609,-87.276 -20.41,-89.586 -21.757,-91.466C-24.302,-95.016 -28.77,-97.039 -33.444,-96.108L-87.92,-85.322L-87.92,-103.99L-32.874,-114.866C-16.632,-118.071 -1.5,-105.631 -1.5,-89.073Z"/>
                    </g>
                    <g transform="matrix(1,0,0,1,424.854,905.869)">
                        <path d="M1.5,188.778L1.5,0C1.5,-7.048 -3.083,-13.193 -9.794,-15.322L-9.794,-15.887L19.616,-15.887L19.616,204.665L-9.794,204.665L-9.794,204.1C-3.083,201.967 1.5,195.822 1.5,188.778Z"/>
                    </g>
                    <g transform="matrix(1,0,0,1,490.244,1045.72)">
                        <path d="M-1.5,64.461L-1.5,65.03L-30.891,65.03L-30.891,-1.565C-25.683,3.069 -19.465,6.199 -12.769,7.59L-12.769,49.723C-12.769,49.762 -12.768,49.8 -12.765,49.839L-12.753,49.989C-12.396,56.641 -7.843,62.435 -1.5,64.461Z"/>
                    </g>
                    <g transform="matrix(1,0,0,1,547.286,924.915)">
                        <path d="M-1.5,81.097L-1.5,99.752L-56.546,110.628C-72.788,113.833 -87.933,101.405 -87.933,84.835L-87.933,-34.716L-58.632,-34.716L-58.632,-34.142C-64.504,-32.241 -68.91,-27.111 -69.756,-21.035L-69.79,-20.83C-69.804,-20.747 -69.811,-20.664 -69.811,-20.581L-69.811,80.507C-69.811,83.039 -69.009,85.348 -67.662,87.228C-65.118,90.778 -60.65,92.802 -55.976,91.87L-1.5,81.097Z"/>
                    </g>
                    <g transform="matrix(1,0,0,1,614.012,1094.87)">
                        <path d="M-1.5,-188.778L-1.5,0C-1.5,7.048 3.083,13.192 9.794,15.322L9.794,15.887L-19.616,15.887L-19.616,-204.665L9.794,-204.665L9.794,-204.1C3.083,-201.967 -1.5,-195.822 -1.5,-188.778Z"/>
                    </g>
                </g>
            </g>
        </g>
    </g>
</svg>
